<svg width="120" height="120" viewBox="0 0 120 120" fill="none" xmlns="http://www.w3.org/2000/svg">
  <rect x="20" y="80" width="30" height="30" rx="2" fill="#3B82F6"/>
  <rect x="22" y="82" width="26" height="26" rx="1" fill="#60A5FA"/>
  <rect x="55" y="60" width="30" height="50" rx="2" fill="#2563EB"/>
  <rect x="57" y="62" width="26" height="46" rx="1" fill="#3B82F6"/>
  <rect x="70" y="40" width="30" height="70" rx="2" fill="#1D4ED8"/>
  <rect x="72" y="42" width="26" height="66" rx="1" fill="#2563EB"/>

  <circle cx="35" cy="95" r="2" fill="#DBEAFE"/>
  <circle cx="70" cy="75" r="2" fill="#DBEAFE"/>
  <circle cx="85" cy="55" r="2" fill="#DBEAFE"/>

  <rect x="25" y="88" width="4" height="8" fill="#DBEAFE"/>
  <rect x="60" y="68" width="4" height="8" fill="#DBEAFE"/>
  <rect x="75" y="48" width="4" height="8" fill="#DBEAFE"/>
  <rect x="90" y="48" width="4" height="8" fill="#DBEAFE"/>

  <path d="M35 20 L45 30 L35 30 L35 35 L30 35 L30 30 L20 30 Z" fill="#3B82F6"/>
  <circle cx="60" cy="25" r="8" fill="#60A5FA"/>
  <rect x="56" y="30" width="8" height="6" fill="#3B82F6"/>
</svg>
