<svg width="20" height="20" viewBox="0 0 20 20" fill="none" xmlns="http://www.w3.org/2000/svg">
<path d="M9.58562 1.25586C5.04728 1.25727 1.25562 5.05492 1.25564 9.59084C1.25565 11.2261 1.74222 12.8415 2.65036 14.2072L1.25305 17.9259L5.9321 17.0795C7.0751 17.6382 8.33021 17.9182 9.58562 17.9191C14.1279 17.9222 17.9231 14.1296 17.9231 9.59084C17.9231 5.05731 14.1265 1.25318 9.58562 1.25586Z" stroke="#0052CC" stroke-width="1.67" stroke-linecap="round" stroke-linejoin="round"/>
<path d="M10.0442 13.2611C11.1715 13.9849 12.3468 13.4577 13.1653 12.8471C13.7306 12.4253 13.7119 11.6118 13.229 11.0976L12.2768 10.0836C11.9156 10.4449 11.2118 10.6237 10.7227 10.4748C9.67157 10.1548 9.2304 9.60691 8.87287 9.0498C8.46225 8.40995 8.92595 7.45434 9.28714 7.09306L8.22583 6.12386C7.77839 5.71527 7.09877 5.64633 6.70837 6.10975C5.93595 7.02664 5.45556 8.41868 6.02448 9.30503C7.04578 10.8962 8.45346 12.2396 10.0442 13.2611Z" stroke="#0052CC" stroke-width="1.67" stroke-linecap="round" stroke-linejoin="round"/>
</svg>
