<svg width="20" height="20" viewBox="0 0 20 20" fill="none" xmlns="http://www.w3.org/2000/svg">
<g clip-path="url(#clip0_3029_18882)">
<path d="M15.6899 11.0938C15.7392 12.0263 15.736 12.9459 15.6284 13.8086L14.6567 13.9541C14.7911 13.2001 14.8294 12.4133 14.812 11.6152M15.6899 11.0938L14.812 11.6152M15.6899 11.0938C15.6822 10.9465 15.6739 10.799 15.6636 10.6514L14.8052 11.3223C14.8089 11.42 14.8099 11.5177 14.812 11.6152M15.6899 11.0938L14.812 11.6152M19.1138 3.31934C19.2232 3.88494 19.2639 4.46164 19.2319 5.03711L19.7358 5.10156L19.8618 5.0127C19.8668 4.93136 19.8698 4.84524 19.8716 4.75391L19.8745 4.63281C19.8791 4.04437 19.8424 3.36722 19.6704 2.76367L19.1138 3.31934ZM19.1138 3.31934L19.6704 2.7627C19.5763 2.43256 19.4406 2.12554 19.2495 1.86621L18.8735 2.55273C18.9311 2.66198 18.9829 2.78351 19.0259 2.91797L19.0952 3.21484C19.1025 3.24947 19.1071 3.28462 19.1138 3.31934ZM15.4985 8.91211C15.5481 9.34469 15.5945 9.782 15.6313 10.2197L14.7856 10.9326C14.7704 10.6603 14.7505 10.3876 14.7271 10.1152L15.3228 9.02734L15.4985 8.91211ZM16.6753 6.56055L16.936 6.08594C17.549 6.01019 18.1594 5.91408 18.7651 5.79199L17.6489 6.58398C17.3999 6.61988 17.1501 6.6504 16.8999 6.67676L16.6753 6.56055ZM16.5083 0.56543C16.5622 0.580099 16.6158 0.595892 16.6694 0.611328L16.5923 0.829102L16.5083 0.56543Z" fill="#9333EA" stroke="#9333EA" stroke-width="111"/>
<path d="M6.82056 11.2764L6.94263 11.3789C7.23375 11.5899 7.61622 11.6564 7.99634 11.6582L7.02954 11.0781L6.82056 11.2764ZM6.82056 11.2764L7.0188 11.0713L6.67896 10.8682M6.82056 11.2764C6.67901 11.1265 6.61235 10.9931 6.67896 10.8682M6.67896 10.8682L7.03345 11.0566L7.41528 10.6641C6.86414 10.6073 6.78533 10.6909 6.67896 10.8682ZM7.46411 10.668C7.81897 10.7078 8.35675 10.8015 9.19263 10.96C9.51738 10.96 9.52563 11.5176 9.19263 11.5176C8.93925 11.563 8.5537 11.6379 8.15063 11.6533L7.04517 11.0635L7.46411 10.668Z" fill="#9333EA" stroke="#9333EA" stroke-width="111"/>
<path d="M7.92822 8.01123L7.57471 8.38428M7.92822 8.01123C7.37711 7.95409 7.3063 8.03526 7.22021 8.2124L7.19189 8.2583C7.14426 8.36702 7.20605 8.4985 7.34424 8.62939L7.46631 8.73193C8.10764 9.1972 9.19421 8.96325 9.71729 8.86182C10.042 8.86182 10.042 8.3042 9.71729 8.3042C8.84783 8.14379 8.29862 8.05004 7.94385 8.01221M7.92822 8.01123L7.57471 8.38428M7.92822 8.01123C7.93337 8.01176 7.93862 8.01165 7.94385 8.01221M7.57471 8.38428L7.57959 8.38623M7.57471 8.38428L7.57959 8.38623M7.57959 8.38623L7.94385 8.01221M7.57959 8.38623L7.94385 8.01221" fill="#9333EA" stroke="#9333EA" stroke-width="111"/>
<path d="M9.62866 5.25684C8.85509 5.11183 8.34461 5.02454 8.00171 4.98438L7.36108 5.58984M9.62866 5.25684L9.66968 5.52441M9.62866 5.25684L9.66968 5.52441M9.62866 5.25684C9.6579 5.26232 9.68753 5.26779 9.71753 5.27344M9.66968 5.52441L9.71753 5.27344M9.66968 5.52441L9.71753 5.27344M9.71753 5.27344C10.0422 5.27349 10.0422 5.83198 9.71753 5.83203L9.60913 5.84863C9.02768 5.94341 7.92333 6.13646 7.36108 5.58984M7.36108 5.58984L7.95483 4.97852C7.37896 4.91565 7.30703 4.99873 7.21948 5.17383C7.14465 5.30693 7.21974 5.44011 7.36108 5.58984Z" fill="#9333EA" stroke="#9333EA" stroke-width="111"/>
<path d="M13.1431 5.25684C12.3885 5.11538 11.8852 5.0288 11.5435 4.9873L10.8667 5.58984M13.1431 5.25684L13.1831 5.52246M13.1431 5.25684L13.1831 5.52246M13.1431 5.25684C13.172 5.26226 13.2013 5.26785 13.231 5.27344M13.1831 5.52246L13.231 5.27344M13.1831 5.52246L13.231 5.27344M13.231 5.27344C13.564 5.27344 13.564 5.83203 13.231 5.83203L13.1226 5.84863C12.5753 5.93705 11.588 6.11146 10.9888 5.68945L10.8667 5.58984M10.8667 5.58984L11.4458 4.97656C10.8943 4.91878 10.8242 5.00128 10.7329 5.17383C10.6581 5.30695 10.7336 5.44008 10.8667 5.58984Z" fill="#9333EA" stroke="#9333EA" stroke-width="111"/>
<path d="M12.3154 13.6577L12.2715 14.4058C12.1969 14.5767 12.0927 14.7131 11.9902 14.7612V13.9644L12.0898 13.7651M12.3154 13.6577L12.0898 13.7651M12.3154 13.6577L12.4766 13.5796M12.3154 13.6577L12.0898 13.7651M12.0898 13.7651L12.291 13.3657L12.3291 13.3208L12.4619 13.3657L12.4766 13.5796M12.4766 13.5796L12.4824 13.6597L12.4834 13.6587L12.4775 13.5786M12.4766 13.5796L12.4775 13.5786M12.4775 13.5786L12.7305 13.4575L12.4629 13.3657L12.4775 13.5786ZM13.126 13.2681L12.7334 13.4565L12.5615 13.3979M13.126 13.2681L12.8818 12.814M13.126 13.2681L13.3193 13.1753L12.9961 12.7036C12.9719 12.7438 12.9349 12.7813 12.8818 12.814M13.126 13.2681L12.8818 12.814M12.5615 13.3979L12.4932 13.1265M12.5615 13.3979L12.4619 13.3638M12.5615 13.3979L12.4932 13.1265M12.4932 13.1265L12.6924 12.8911C12.7696 12.8706 12.8322 12.8446 12.8818 12.814M12.4932 13.1265L12.4492 13.1792M12.4619 13.3638L12.4492 13.1792M12.4619 13.3638L12.334 13.3208M12.4619 13.3638L12.4492 13.1792M12.4492 13.1792L12.335 13.314M12.4492 13.1792H12.4482L12.4404 13.0679V13.0669L12.4492 13.1792ZM12.334 13.3208L12.335 13.314M12.334 13.3208L12.3301 13.3188L12.335 13.314M12.334 13.3208L12.335 13.314M12.3564 12.9351C12.2338 12.9404 12.1116 12.9401 11.9902 12.9292V13.2036L12.0547 13.2251L12.3555 12.9497M12.3564 12.9351L12.3555 12.9497M12.3564 12.9351L12.3555 12.9497M12.3564 12.9351C12.3617 12.9348 12.3669 12.9343 12.3721 12.9341L12.3555 12.9497M13.6885 12.9976L13.332 13.1694L13.0186 12.6528C13.0238 12.6357 13.0274 12.6187 13.0283 12.6011M13.6885 12.9976L13.0283 12.6011M13.6885 12.9976L13.8232 12.9331C13.8527 12.8677 13.8768 12.8 13.8926 12.73L13.9121 12.6167C13.9162 12.5813 13.9175 12.5457 13.918 12.5103M13.6885 12.9976L13.0283 12.6011M13.0283 12.6011C13.0299 12.5722 13.026 12.5433 13.0166 12.5142M13.0166 12.5142L13.3203 12.5483M13.0166 12.5142L13.3203 12.5483M13.0166 12.5142V12.5132M13.3203 12.5483L13.918 12.5103M13.3203 12.5483H13.3223M13.918 12.5103C13.9196 12.3942 13.903 12.2784 13.8672 12.1675M13.918 12.5103L13.3223 12.5483M13.3223 12.5483L13.0166 12.5132M13.3223 12.5483L13.0166 12.5132M13.0166 12.5132C13.0163 12.5122 13.016 12.5112 13.0156 12.5103L13.0938 12.4175L13.8672 12.1675M13.8672 12.1675C13.8201 12.0224 13.7417 11.8884 13.6387 11.7759M13.8672 12.1675L13.0947 12.4175L13.6387 11.7759M13.6387 11.7759C13.4963 11.6553 13.3451 11.5469 13.1875 11.4497L12.8955 11.5923M13.6387 11.7759L12.9541 12.4019C12.9351 12.3787 12.9132 12.3559 12.8877 12.3345L12.8311 12.2925C12.8173 12.2855 12.8029 12.2797 12.7891 12.2729L12.6934 12.1157M12.6934 12.1157L12.8955 11.5923M12.6934 12.1157L12.4961 11.7886L12.8955 11.5923M12.6934 12.1157L12.8955 11.5923M12.6562 12.2124H12.6572L12.6582 12.2114L12.6572 12.2104M12.6562 12.2124L12.6572 12.2104M12.6562 12.2124L12.6572 12.2104M12.6562 12.2124C12.5627 12.1704 12.4682 12.1315 12.3721 12.0962L12.3555 11.8569L12.4004 11.8354L12.6572 12.2104M12.1592 12.0229C12.2306 12.0451 12.3009 12.0704 12.3711 12.0962L12.3535 11.8579L12.165 11.9507M12.1592 12.0229L12.165 11.9507M12.1592 12.0229C12.1294 12.0137 12.0993 12.0061 12.0693 11.9976L12.165 11.9507M12.1592 12.0229L12.165 11.9507M13.4893 10.5356L13.4434 10.5503C13.4119 10.557 13.3793 10.5578 13.3477 10.5522L13.3018 10.5386M13.4893 10.5356L13.3906 10.313L13.3877 10.314M13.4893 10.5356C13.6169 10.4792 13.6495 10.3603 13.6113 10.2183L13.3936 10.311L13.4893 10.5356ZM13.3018 10.5386L13.3877 10.314M13.3018 10.5386C13.2412 10.5152 13.1913 10.4696 13.1641 10.4106M13.3018 10.5386L13.3877 10.314M13.3877 10.314L13.1641 10.4106M13.1641 10.4106L13.3877 10.3062L13.1621 9.79736L12.876 10.1226C13.0171 10.1973 13.1168 10.3005 13.1641 10.4106ZM13.3906 10.3052L13.5078 9.99951C13.4414 9.90152 13.3501 9.80158 13.2373 9.71143L13.1709 9.7876L13.3906 10.3052ZM13.3906 10.3052L13.6084 10.2046C13.5891 10.1398 13.556 10.0703 13.5088 10.0005L13.4609 10.1245L13.3906 10.3052ZM12.5605 9.41064L12.3594 9.36377L12.1943 9.58154L12.2246 10.0083C12.2656 10.0046 12.3057 10.0037 12.3447 10.0034L12.5449 9.68408M12.5605 9.41064L12.5449 9.68408M12.5605 9.41064L12.5449 9.68408M12.5605 9.41064L12.6973 9.44189L12.5449 9.68408M12.0537 13.2261L11.9902 13.2847V13.2046L12.0537 13.2261ZM11.9902 11.2368L12.3457 11.7563L12.3535 11.855L12.0664 11.9966C12.041 11.9893 12.0158 11.9809 11.9902 11.9741V11.2368ZM12.3984 11.8325L12.3545 11.854L12.3477 11.7593L12.3984 11.8325ZM12.2979 11.0513C12.539 11.1231 12.7719 11.2187 12.9932 11.3374L12.8965 11.5884L12.4941 11.7856L12.3311 11.5161L12.2979 11.0513ZM12.9941 11.3374C13.0585 11.372 13.1213 11.4094 13.1836 11.4478L12.8975 11.5884L12.9941 11.3374ZM12.1035 10.9985C12.1679 11.014 12.2316 11.0315 12.2949 11.0503L12.3281 11.5112L12.0527 11.0562L12.1035 10.9985ZM12.2197 10.0093C12.146 10.0163 12.0694 10.0299 11.9902 10.0493V9.8501L12.1895 9.5874L12.2197 10.0093ZM11.8887 8.23096L11.6006 8.52393C11.6865 8.33921 11.8058 8.20317 11.9082 8.15186L11.8887 8.23096Z" fill="#9333EA" stroke="#9333EA" stroke-width="111"/>
</g>
<defs>
<clipPath id="clip0_3029_18882">
<rect width="20" height="20" fill="white"/>
</clipPath>
</defs>
</svg>
