<svg width="20" height="20" viewBox="0 0 20 20" fill="none" xmlns="http://www.w3.org/2000/svg">
<path d="M12.5 13.3332L14.6133 7.22653C14.6711 7.05945 14.7795 6.91455 14.9235 6.81198C15.0675 6.70942 15.2399 6.6543 15.4167 6.6543C15.5934 6.6543 15.7658 6.70942 15.9098 6.81198C16.0538 6.91455 16.1622 7.05945 16.22 7.22653L18.3333 13.3332" stroke="#407BFF" stroke-width="1.5" stroke-linecap="round" stroke-linejoin="round"/>
<path d="M13.0808 11.6665H17.7525" stroke="#407BFF" stroke-width="1.5" stroke-linecap="round" stroke-linejoin="round"/>
<path d="M1.66663 13.3333L5.03246 5.25829C5.06411 5.18237 5.11751 5.11752 5.18595 5.07191C5.25439 5.02629 5.3348 5.00195 5.41704 5.00195C5.49929 5.00195 5.5797 5.02629 5.64813 5.07191C5.71657 5.11752 5.76998 5.18237 5.80163 5.25829L9.16663 13.3333" stroke="#407BFF" stroke-width="1.5" stroke-linecap="round" stroke-linejoin="round"/>
<path d="M2.7533 10.8335H8.07996" stroke="#407BFF" stroke-width="1.5" stroke-linecap="round" stroke-linejoin="round"/>
</svg>
