<svg width="20" height="18" viewBox="0 0 20 18" fill="none" xmlns="http://www.w3.org/2000/svg">
<g clip-path="url(#clip0_3029_18899)">
<path d="M13.6409 8.68717C13.9683 8.42025 14.4508 8.43908 14.7558 8.74417L18.0892 12.0775L16.9108 13.2558L15 11.3451V16.8333H13.3333V11.3451L11.4225 13.2558L10.2442 12.0775L13.5775 8.74417L13.6409 8.68717ZM12.5 1C12.9602 1 13.3333 1.3731 13.3333 1.83333V6.83333H11.6667V6H1.66667V9.33333H8.33333V11H0.833333C0.3731 11 0 10.6269 0 10.1667V1.83333C0 1.3731 0.3731 1 0.833333 1H12.5ZM1.66667 3.91667H11.6667V2.66667H1.66667V3.91667Z" fill="#CF0000"/>
</g>
<defs>
<clipPath id="clip0_3029_18899">
<rect width="20" height="17.8333" fill="white"/>
</clipPath>
</defs>
</svg>
