<svg width="17" height="17" viewBox="0 0 17 17" fill="none" xmlns="http://www.w3.org/2000/svg">
<path d="M7.79167 10.6248H9.20833C9.58406 10.6248 9.94439 10.4756 10.2101 10.2099C10.4757 9.94423 10.625 9.58389 10.625 9.20817C10.625 8.83245 10.4757 8.47211 10.2101 8.20644C9.94439 7.94076 9.58406 7.7915 9.20833 7.7915H7.08333C6.65833 7.7915 6.30417 7.93317 6.09167 8.2165L2.125 12.0415" stroke="#407BFF" stroke-width="1.5" stroke-linecap="round" stroke-linejoin="round"/>
<path d="M4.95837 14.8749L6.09171 13.8833C6.30421 13.5999 6.65837 13.4583 7.08337 13.4583H9.91671C10.6959 13.4583 11.4042 13.1749 11.9 12.6083L15.1584 9.49162C15.4317 9.23331 15.5912 8.87699 15.6019 8.50106C15.6125 8.12513 15.4733 7.76037 15.215 7.48703C14.9567 7.21369 14.6004 7.05416 14.2245 7.04354C13.8486 7.03291 13.4838 7.17206 13.2105 7.43037L10.2355 10.1929" stroke="#407BFF" stroke-width="1.5" stroke-linecap="round" stroke-linejoin="round"/>
<path d="M1.41663 11.3335L5.66663 15.5835" stroke="#407BFF" stroke-width="1.5" stroke-linecap="round" stroke-linejoin="round"/>
<path d="M11.3333 8.42913C12.4678 8.42913 13.3875 7.50945 13.3875 6.37497C13.3875 5.24048 12.4678 4.3208 11.3333 4.3208C10.1989 4.3208 9.27917 5.24048 9.27917 6.37497C9.27917 7.50945 10.1989 8.42913 11.3333 8.42913Z" stroke="#407BFF" stroke-width="1.5" stroke-linecap="round" stroke-linejoin="round"/>
<path d="M4.25 5.6665C5.4236 5.6665 6.375 4.71511 6.375 3.5415C6.375 2.3679 5.4236 1.4165 4.25 1.4165C3.07639 1.4165 2.125 2.3679 2.125 3.5415C2.125 4.71511 3.07639 5.6665 4.25 5.6665Z" stroke="#407BFF" stroke-width="1.5" stroke-linecap="round" stroke-linejoin="round"/>
</svg>
