<svg width="17" height="17" viewBox="0 0 17 17" fill="none" xmlns="http://www.w3.org/2000/svg">
<path d="M9.91663 12.75L12.75 15.5833L15.5833 12.75" stroke="#407BFF" stroke-width="1.5" stroke-linecap="round" stroke-linejoin="round"/>
<path d="M11.3334 1.4165V4.24984" stroke="#407BFF" stroke-width="1.5" stroke-linecap="round" stroke-linejoin="round"/>
<path d="M12.75 9.9165V15.5832" stroke="#407BFF" stroke-width="1.5" stroke-linecap="round" stroke-linejoin="round"/>
<path d="M14.875 8.04258V4.25016C14.875 3.87444 14.7257 3.5141 14.4601 3.24843C14.1944 2.98275 13.8341 2.8335 13.4583 2.8335H3.54167C3.16594 2.8335 2.80561 2.98275 2.53993 3.24843C2.27426 3.5141 2.125 3.87444 2.125 4.25016V14.1668C2.125 14.5426 2.27426 14.9029 2.53993 15.1686C2.80561 15.4342 3.16594 15.5835 3.54167 15.5835H8.74296" stroke="#407BFF" stroke-width="1.5" stroke-linecap="round" stroke-linejoin="round"/>
<path d="M2.125 7.0835H14.875" stroke="#407BFF" stroke-width="1.5" stroke-linecap="round" stroke-linejoin="round"/>
<path d="M5.66663 1.4165V4.24984" stroke="#407BFF" stroke-width="1.5" stroke-linecap="round" stroke-linejoin="round"/>
</svg>
