<svg width="131" height="134" viewBox="0 0 131 134" fill="none" xmlns="http://www.w3.org/2000/svg">
<path opacity="0.8" d="M65.5 134C101.675 134 131 104.003 131 67C131 29.9969 101.675 0 65.5 0C29.3253 0 0 29.9969 0 67C0 104.003 29.3253 134 65.5 134Z" fill="#EFF6FF"/>
<path opacity="0.6" d="M65.5 119C90.629 119 111 98.1812 111 72.5C111 46.8188 90.629 26 65.5 26C40.371 26 20 46.8188 20 72.5C20 98.1812 40.371 119 65.5 119Z" fill="#DBEAFE"/>
<path d="M87.0909 57H43.9091C35.1227 57 28 64.8931 28 74.6296V107.37C28 117.107 35.1227 125 43.9091 125H87.0909C95.8773 125 103 117.107 103 107.37V74.6296C103 64.8931 95.8773 57 87.0909 57Z" fill="#2563EB"/>
<path d="M87.0909 57H43.9091C35.1227 57 28 64.3873 28 73.5C28 82.6127 35.1227 90 43.9091 90H87.0909C95.8773 90 103 82.6127 103 73.5C103 64.3873 95.8773 57 87.0909 57Z" fill="white" fill-opacity="0.1"/>
<path d="M44 57V39.2308C44 18.9231 87 18.9231 87 39.2308V57" stroke="#1D4ED8" stroke-width="5" stroke-linecap="round" stroke-linejoin="round"/>
<path d="M48 57V39.8636C48 24.0455 83 24.0455 83 39.8636V57" stroke="#3B82F6" stroke-width="3" stroke-linecap="round" stroke-linejoin="round"/>
<path d="M65.5 98C71.8513 98 77 92.1797 77 85C77 77.8203 71.8513 72 65.5 72C59.1487 72 54 77.8203 54 85C54 92.1797 59.1487 98 65.5 98Z" fill="white" fill-opacity="0.22"/>
<path d="M65.5 90C69.0899 90 72 86.6421 72 82.5C72 78.3579 69.0899 75 65.5 75C61.9101 75 59 78.3579 59 82.5C59 86.6421 61.9101 90 65.5 90Z" fill="#1D4ED8"/>
<path d="M68 90.5C68 89.1193 66.8807 88 65.5 88C64.1193 88 63 89.1193 63 90.5V95.5C63 96.8807 64.1193 98 65.5 98C66.8807 98 68 96.8807 68 95.5V90.5Z" fill="#1D4ED8"/>
<path d="M12.5 49C14.9853 49 17 46.7614 17 44C17 41.2386 14.9853 39 12.5 39C10.0147 39 8 41.2386 8 44C8 46.7614 10.0147 49 12.5 49Z" fill="#BFDBFE"/>
<path d="M12.5 47C13.8807 47 15 45.6569 15 44C15 42.3431 13.8807 41 12.5 41C11.1193 41 10 42.3431 10 44C10 45.6569 11.1193 47 12.5 47Z" fill="#93C5FD"/>
<path d="M118.5 38C120.433 38 122 35.9853 122 33.5C122 31.0147 120.433 29 118.5 29C116.567 29 115 31.0147 115 33.5C115 35.9853 116.567 38 118.5 38Z" fill="#C7D2FE"/>
<path d="M118.5 35C119.328 35 120 34.3284 120 33.5C120 32.6716 119.328 32 118.5 32C117.672 32 117 32.6716 117 33.5C117 34.3284 117.672 35 118.5 35Z" fill="#A5B4FC"/>
<path d="M20.5 109C22.433 109 24 107.433 24 105.5C24 103.567 22.433 102 20.5 102C18.567 102 17 103.567 17 105.5C17 107.433 18.567 109 20.5 109Z" fill="#BFDBFE"/>
<path d="M114.5 109C115.881 109 117 107.433 117 105.5C117 103.567 115.881 102 114.5 102C113.119 102 112 103.567 112 105.5C112 107.433 113.119 109 114.5 109Z" fill="#BFDBFE"/>
<path opacity="0.7" d="M8.66667 24.3333L11 19L13.3333 24.3333L18 27L13.3333 29.6667L11 35L8.66667 29.6667L4 27L8.66667 24.3333Z" fill="#60A5FA"/>
<path opacity="0.6" d="M121.667 12.3333L123.5 9L125.333 12.3333L129 14L125.333 15.6667L123.5 19L121.667 15.6667L118 14L121.667 12.3333Z" fill="#818CF8"/>
</svg>
