<svg width="24" height="24" viewBox="0 0 24 24" fill="none" xmlns="http://www.w3.org/2000/svg">
<path d="M17.7402 4.82031C17.7403 4.65391 17.925 4.51998 18.1074 4.61328C19.3586 5.27987 20.2098 6.60246 20.21 8.12012V17.5303C20.21 19.7141 18.424 21.4999 16.2402 21.5H7.75977C5.57603 21.4999 3.79004 19.714 3.79004 17.5303V8.12012C3.79016 6.69634 4.53926 5.444 5.66504 4.74414L5.89453 4.6123C6.06558 4.52158 6.25964 4.65326 6.25977 4.82031C6.25977 6.68645 7.78425 8.21094 9.65039 8.21094H14.3496C16.2158 8.21094 17.7402 6.68645 17.7402 4.82031Z" stroke="#67696C"/>
<path d="M14.3498 2H9.64976C8.60976 2 7.75977 2.84 7.75977 3.88V4.82C7.75977 5.86 8.59977 6.7 9.63977 6.7H14.3498C15.3898 6.7 16.2298 5.86 16.2298 4.82V3.88C16.2398 2.84 15.3898 2 14.3498 2Z" fill="#67696C"/>
<path d="M14.9986 15.7749C14.9986 14.3436 13.8043 13.9332 12.5124 13.7022L11.8277 13.585C10.8151 13.4169 10.7369 13.1688 10.7369 12.8367C10.7369 12.4057 11.1967 12.1482 11.9669 12.1482C12.8789 12.1482 13.1126 12.5352 13.2096 12.8259L13.2188 12.85C13.3336 13.1035 13.6001 13.2547 13.9327 13.2547C14.0189 13.2547 14.0963 13.2436 14.1542 13.2337C14.5111 13.1737 14.7597 12.9337 14.7597 12.6495C14.7597 12.579 14.7446 12.5091 14.7143 12.4411C14.5314 11.9443 14.0174 11.1624 12.5934 10.9839V10.1319C12.5934 9.42219 11.2775 9.42219 11.2775 10.1319V10.989C9.7478 11.1912 9.18451 12.0702 9.18451 12.8364C9.18451 14.2305 10.3338 14.6192 11.4565 14.8148L12.1972 14.9477C13.252 15.1289 13.438 15.3612 13.438 15.7821C13.438 16.2965 12.9232 16.6031 12.0601 16.6031C10.9397 16.6031 10.7114 16.1769 10.5586 15.6986C10.4693 15.4338 10.1861 15.2633 9.83677 15.2633C9.76059 15.2633 9.6995 15.2718 9.6258 15.2825L9.60361 15.2861C9.2424 15.3585 9 15.5988 9 15.8837C9 15.9378 9.01137 15.9839 9.0206 16.0211L9.03197 16.0637C9.19445 16.5276 9.55317 17.5409 11.3423 17.7669V18.6587C11.3423 19.0138 11.673 19.1996 12.0001 19.1996C12.3272 19.1996 12.6582 19.0138 12.6582 18.6587V17.7825C14.0789 17.6262 15 16.8596 15 15.7751" fill="#67696C"/>
</svg>
