<svg width="29" height="29" viewBox="0 0 29 29" fill="none" xmlns="http://www.w3.org/2000/svg">
<rect width="29" height="29" rx="6" fill="#FCE8E6"/>
<path d="M6.86427 18V12.168H9.24827C9.73893 12.168 10.1469 12.248 10.4723 12.408C10.7976 12.5627 11.0403 12.784 11.2003 13.072C11.3656 13.3547 11.4483 13.6907 11.4483 14.08C11.4483 14.4907 11.3576 14.84 11.1763 15.128C10.9949 15.416 10.7389 15.6373 10.4083 15.792C10.0776 15.9413 9.69093 16.016 9.24827 16.016H8.00027V15.048H9.14427C9.5016 15.048 9.76293 14.96 9.92827 14.784C10.0989 14.608 10.1843 14.3867 10.1843 14.12C10.1843 13.8107 10.0883 13.584 9.89627 13.44C9.7096 13.296 9.45893 13.224 9.14427 13.224H7.95227L8.11227 13.072V18H6.86427ZM12.2393 18V12.168H14.7273C15.3033 12.168 15.7913 12.2907 16.1913 12.536C16.5913 12.776 16.8953 13.1147 17.1033 13.552C17.3113 13.9893 17.4153 14.5013 17.4153 15.088C17.4153 15.52 17.3566 15.9173 17.2393 16.28C17.1219 16.6373 16.9486 16.944 16.7193 17.2C16.4899 17.456 16.2073 17.6533 15.8713 17.792C15.5406 17.9307 15.1593 18 14.7273 18H12.2393ZM13.4873 16.936H14.5193C14.7539 16.936 14.9699 16.904 15.1673 16.84C15.3646 16.776 15.5353 16.672 15.6793 16.528C15.8233 16.384 15.9353 16.192 16.0153 15.952C16.0953 15.712 16.1353 15.416 16.1353 15.064C16.1353 14.6053 16.0659 14.2427 15.9273 13.976C15.7939 13.7093 15.6046 13.5173 15.3593 13.4C15.1193 13.2827 14.8393 13.224 14.5193 13.224H13.4873V16.936ZM18.2549 18V12.168H22.4869V13.232H19.2949L19.5029 13.024V18H18.2549ZM19.1829 15.712V14.696H22.1669V15.712H19.1829Z" fill="#C5221F"/>
</svg>
