<svg width="29" height="29" viewBox="0 0 29 29" fill="none" xmlns="http://www.w3.org/2000/svg">
<rect width="29" height="29" rx="6" fill="#E8F0FE"/>
<path d="M5.96585 18V12.168H8.34985C8.84051 12.168 9.24851 12.248 9.57385 12.408C9.89918 12.5627 10.1418 12.784 10.3018 13.072C10.4672 13.3547 10.5498 13.6907 10.5498 14.08C10.5498 14.4907 10.4592 14.84 10.2778 15.128C10.0965 15.416 9.84051 15.6373 9.50985 15.792C9.17918 15.9413 8.79251 16.016 8.34985 16.016H7.10185V15.048H8.24585C8.60318 15.048 8.86451 14.96 9.02985 14.784C9.20051 14.608 9.28585 14.3867 9.28585 14.12C9.28585 13.8107 9.18985 13.584 8.99785 13.44C8.81118 13.296 8.56051 13.224 8.24585 13.224H7.05385L7.21385 13.072V18H5.96585ZM11.3408 18V12.168H12.8688L15.3008 16.248H15.3488L15.2928 14.424V12.168H16.5008V18H15.0528L12.6128 13.968H12.5648L12.6128 15.656V18H11.3408ZM20.0865 18.072C19.6705 18.072 19.2945 18.0053 18.9585 17.872C18.6225 17.7387 18.3318 17.5467 18.0865 17.296C17.8465 17.04 17.6598 16.7333 17.5265 16.376C17.3985 16.0133 17.3345 15.608 17.3345 15.16C17.3345 14.6747 17.4065 14.2427 17.5505 13.864C17.6945 13.4853 17.8971 13.1653 18.1585 12.904C18.4251 12.6373 18.7398 12.4373 19.1025 12.304C19.4705 12.1653 19.8811 12.096 20.3345 12.096C20.8411 12.096 21.2918 12.1787 21.6865 12.344C22.0811 12.504 22.4011 12.7333 22.6465 13.032C22.8971 13.3253 23.0491 13.68 23.1025 14.096H21.8385C21.7798 13.9093 21.6811 13.7467 21.5425 13.608C21.4038 13.464 21.2305 13.3547 21.0225 13.28C20.8198 13.2 20.5878 13.16 20.3265 13.16C19.9531 13.16 19.6385 13.2427 19.3825 13.408C19.1318 13.568 18.9398 13.7947 18.8065 14.088C18.6785 14.3813 18.6145 14.7253 18.6145 15.12C18.6145 15.4293 18.6545 15.704 18.7345 15.944C18.8145 16.184 18.9265 16.3867 19.0705 16.552C19.2198 16.712 19.3958 16.8347 19.5985 16.92C19.8065 17.0053 20.0385 17.048 20.2945 17.048C20.6038 17.048 20.8731 16.9947 21.1025 16.888C21.3371 16.776 21.5185 16.6213 21.6465 16.424C21.7798 16.2267 21.8465 15.9947 21.8465 15.728V15.48L22.1025 15.712H20.1905V14.808H23.1745V18H22.1825L22.1185 17.08H22.0705C21.9798 17.2773 21.8358 17.4507 21.6385 17.6C21.4411 17.7493 21.2091 17.8667 20.9425 17.952C20.6758 18.032 20.3905 18.072 20.0865 18.072Z" fill="#1967D2"/>
</svg>
