<svg width="94" height="82" viewBox="0 0 94 82" fill="none" xmlns="http://www.w3.org/2000/svg">
<circle cx="46.5465" cy="47.1595" r="25.1595" fill="#407BFF"/>
<path d="M44.757 56.2797C44.3633 56.6904 43.7068 56.6904 43.3132 56.2797L36.0503 48.703C35.6795 48.3162 35.6795 47.7058 36.0503 47.319L36.8271 46.5087C37.2207 46.098 37.8772 46.098 38.2709 46.5087L43.3132 51.7688C43.7068 52.1795 44.3633 52.1795 44.757 51.7688L57.2336 38.7531C57.6272 38.3424 58.2837 38.3424 58.6774 38.7531L59.4542 39.5634C59.825 39.9503 59.825 40.5606 59.4542 40.9474L44.757 56.2797Z" fill="white"/>
<path d="M7.04636 24.6768C7.86554 28.0054 10.5039 30.5801 13.8516 31.3177L14.0927 31.3708L13.8516 31.4239C10.5039 32.1615 7.86554 34.7362 7.04636 38.0648C6.22718 34.7362 3.58881 32.1615 0.241128 31.4239L0 31.3708L0.241125 31.3177C3.58881 30.5801 6.22718 28.0054 7.04636 24.6768Z" fill="#407BFF"/>
<path d="M21.4291 72.4678C21.991 74.7508 23.8006 76.5167 26.0967 77.0226L26.2621 77.0591L26.0967 77.0955C23.8006 77.6014 21.991 79.3673 21.4291 81.6503C20.8673 79.3673 19.0577 77.6014 16.7616 77.0955L16.5962 77.0591L16.7616 77.0226C19.0577 76.5167 20.8673 74.7508 21.4291 72.4678Z" fill="#407BFF"/>
<path d="M52.6056 0C53.5704 3.92029 56.6777 6.95256 60.6204 7.82126L60.9044 7.88383L60.6204 7.94639C56.6777 8.81509 53.5704 11.8474 52.6056 15.7677C51.6409 11.8474 48.5336 8.81509 44.5909 7.9464L44.3069 7.88383L44.5909 7.82126C48.5336 6.95256 51.6409 3.92029 52.6056 0Z" fill="#407BFF"/>
<path d="M87.861 38.0645C88.5485 40.8581 90.7628 43.0189 93.5723 43.6379L93.7747 43.6825L93.5723 43.7271C90.7628 44.3461 88.5485 46.5069 87.861 49.3005C87.1735 46.5069 84.9592 44.3461 82.1496 43.7271L81.9473 43.6825L82.1496 43.6379C84.9592 43.0189 87.1735 40.8581 87.861 38.0645Z" fill="#407BFF"/>
<path d="M71.7475 67.999C72.2944 70.2212 74.0558 71.94 76.2906 72.4324L76.4516 72.4679L76.2906 72.5034C74.0558 72.9958 72.2944 74.7146 71.7475 76.9368C71.2007 74.7146 69.4393 72.9958 67.2044 72.5034L67.0435 72.4679L67.2044 72.4324C69.4393 71.94 71.2007 70.2212 71.7475 67.999Z" fill="#407BFF"/>
</svg>
