<svg width="413" height="413" viewBox="0 0 413 413" fill="none" xmlns="http://www.w3.org/2000/svg">
<g filter="url(#filter0_f_561_7093)">
<rect x="135.152" y="135.151" width="142.222" height="142.222" rx="12.1636" fill="#212227" fill-opacity="0.08"/>
</g>
<rect x="137.998" y="137.996" width="136.533" height="136.533" rx="9.95556" fill="#F4F4F4"/>
<rect x="145.109" y="145.107" width="122.311" height="122.311" rx="8.53333" fill="white"/>
<path d="M210.53 167.862C210.53 167.47 210.849 167.151 211.241 167.158C216.042 167.252 220.779 168.299 225.176 170.24C229.791 172.277 233.929 175.254 237.328 178.981C240.726 182.708 243.31 187.102 244.914 191.884C246.443 196.441 247.049 201.254 246.702 206.043C246.673 206.435 246.326 206.723 245.935 206.687L211.176 203.478C210.81 203.444 210.53 203.137 210.53 202.77V167.862Z" fill="#5D74F1"/>
<path d="M204.842 174.974C204.842 174.581 204.524 174.262 204.131 174.27C197.628 174.403 191.286 176.354 185.827 179.909C180.169 183.594 175.704 188.843 172.974 195.018C170.244 201.193 169.366 208.028 170.449 214.693C171.531 221.357 174.526 227.563 179.07 232.557C183.614 237.551 189.511 241.117 196.044 242.822C202.577 244.527 209.464 244.298 215.869 242.161C222.274 240.024 227.92 236.073 232.121 230.787C236.174 225.687 238.714 219.557 239.458 213.095C239.503 212.705 239.215 212.358 238.824 212.321L205.487 209.168C205.121 209.134 204.842 208.827 204.842 208.46V174.974Z" fill="#BEC7F9"/>
<defs>
<filter id="filter0_f_561_7093" x="0.000823975" y="-0.000152588" width="412.526" height="412.525" filterUnits="userSpaceOnUse" color-interpolation-filters="sRGB">
<feFlood flood-opacity="0" result="BackgroundImageFix"/>
<feBlend mode="normal" in="SourceGraphic" in2="BackgroundImageFix" result="shape"/>
<feGaussianBlur stdDeviation="67.5758" result="effect1_foregroundBlur_561_7093"/>
</filter>
</defs>
</svg>
