<svg width="353" height="329" viewBox="0 0 353 329" fill="none" xmlns="http://www.w3.org/2000/svg">
<g filter="url(#filter0_f_561_7100)">
<rect x="96.832" y="96.8311" width="159.289" height="135.111" rx="8.7148" fill="#212227" fill-opacity="0.1"/>
</g>
<g filter="url(#filter1_d_561_7100)">
<rect x="97.543" y="97.5425" width="157.867" height="133.689" rx="8.53333" fill="#F4F4F4"/>
</g>
<rect x="104.654" y="104.653" width="143.644" height="119.467" rx="8.53333" fill="white"/>
<line x1="126.941" y1="201.783" x2="234.753" y2="201.783" stroke="#E1E1E1" stroke-width="0.484156"/>
<line x1="126.941" y1="186.341" x2="234.753" y2="186.341" stroke="#E1E1E1" stroke-width="0.484156"/>
<line x1="126.941" y1="170.9" x2="234.753" y2="170.9" stroke="#E1E1E1" stroke-width="0.484156" stroke-dasharray="2.9 2.9"/>
<line x1="126.941" y1="155.459" x2="234.753" y2="155.459" stroke="#E1E1E1" stroke-width="0.484156"/>
<line x1="126.941" y1="140.018" x2="234.753" y2="140.018" stroke="#E1E1E1" stroke-width="0.484156"/>
<path d="M130.951 167.052L127.413 164.239C127.222 164.088 126.941 164.223 126.941 164.467V201.734C126.941 201.895 127.071 202.025 127.232 202.025H234.462C234.623 202.025 234.753 201.895 234.753 201.734V141.455C234.753 141.194 234.437 141.065 234.255 141.251L228.158 147.484C228.141 147.501 228.127 147.52 228.115 147.54L221.836 158.239C221.71 158.453 221.389 158.42 221.31 158.184L219.897 153.971C219.808 153.707 219.435 153.707 219.346 153.972L215.832 164.472C215.745 164.732 215.379 164.738 215.284 164.481L211.235 153.512C211.141 153.257 210.779 153.259 210.688 153.515L209.255 157.558C209.232 157.624 209.184 157.68 209.123 157.714L204.927 160.05C204.776 160.135 204.585 160.069 204.518 159.909L200.803 151.041C200.701 150.797 200.352 150.805 200.262 151.054L191.842 174.251C191.78 174.422 191.578 174.495 191.422 174.402L188.436 172.644C188.279 172.551 188.075 172.626 188.015 172.799L184.862 181.811C184.777 182.056 184.438 182.075 184.326 181.841L180.926 174.745C180.878 174.644 180.776 174.58 180.664 174.58H175.366C175.249 174.58 175.143 174.65 175.098 174.758L173.593 178.349C173.488 178.6 173.126 178.581 173.047 178.321L169.961 168.179C169.877 167.903 169.485 167.905 169.404 168.182L165.92 180.086C165.846 180.338 165.503 180.371 165.383 180.138L162.147 173.867C162.048 173.675 161.783 173.654 161.655 173.827L155.099 182.689C154.976 182.856 154.723 182.844 154.616 182.666L149.788 174.616C149.774 174.592 149.763 174.566 149.756 174.538L145.378 157.254C145.309 156.979 144.926 156.956 144.825 157.222L139.938 170.03C139.849 170.264 139.526 170.283 139.41 170.061L135.207 162.041C135.104 161.846 134.831 161.831 134.708 162.014L131.373 166.987C131.278 167.128 131.083 167.158 130.951 167.052Z" fill="url(#paint0_linear_561_7100)"/>
<path d="M126.941 163.586L130.951 166.768C131.084 166.873 131.278 166.843 131.373 166.702L134.708 161.739C134.831 161.556 135.104 161.571 135.206 161.766L139.41 169.771C139.526 169.992 139.849 169.973 139.938 169.74L144.825 156.956C144.927 156.691 145.309 156.713 145.378 156.988L149.756 174.239C149.763 174.266 149.774 174.293 149.788 174.317L154.616 182.351C154.723 182.529 154.975 182.541 155.099 182.375L161.655 173.529C161.783 173.356 162.048 173.378 162.147 173.569L165.383 179.828C165.503 180.061 165.846 180.028 165.92 179.776L169.404 167.895C169.485 167.618 169.877 167.616 169.961 167.892L173.047 178.015C173.126 178.275 173.487 178.293 173.593 178.042L175.098 174.458C175.143 174.351 175.249 174.28 175.366 174.28H180.664C180.776 174.28 180.878 174.344 180.926 174.445L184.326 181.528C184.438 181.761 184.777 181.742 184.862 181.498L188.015 172.503C188.075 172.33 188.278 172.256 188.436 172.349L191.422 174.104C191.578 174.196 191.78 174.123 191.842 173.952L200.262 150.8C200.352 150.552 200.7 150.543 200.803 150.787L204.518 159.638C204.585 159.797 204.776 159.863 204.927 159.779L209.123 157.448C209.184 157.413 209.232 157.358 209.255 157.291L210.688 153.256C210.779 153 211.14 152.998 211.235 153.253L215.284 164.201C215.379 164.458 215.745 164.452 215.832 164.193L219.346 153.712C219.435 153.448 219.808 153.448 219.897 153.712L221.31 157.916C221.389 158.152 221.709 158.186 221.836 157.971L228.11 147.301C228.125 147.276 228.144 147.253 228.165 147.233L234.51 141.466" stroke="#5D74F1" stroke-width="0.677818" stroke-linecap="round"/>
<rect x="170.162" y="136.882" width="25.2531" height="11.581" rx="1.93662" fill="#212227"/>
<path d="M176.153 144.835C175.966 144.835 175.79 144.803 175.625 144.739C175.461 144.671 175.317 144.576 175.194 144.453C175.075 144.327 174.988 144.18 174.933 144.012L175.32 143.848C175.388 144.025 175.498 144.164 175.65 144.264C175.805 144.361 175.972 144.409 176.153 144.409C176.302 144.409 176.432 144.377 176.545 144.313C176.661 144.245 176.752 144.153 176.816 144.037C176.881 143.917 176.913 143.785 176.913 143.64C176.913 143.488 176.879 143.354 176.812 143.238C176.747 143.122 176.658 143.031 176.545 142.967C176.432 142.899 176.303 142.865 176.158 142.865C176.009 142.865 175.874 142.899 175.751 142.967C175.629 143.034 175.54 143.12 175.485 143.223L175.102 143.141L175.378 141.17H177.247V141.582H175.558L175.742 141.398L175.529 142.928L175.364 142.831C175.47 142.695 175.595 142.599 175.737 142.541C175.882 142.479 176.039 142.449 176.206 142.449C176.442 142.449 176.649 142.502 176.826 142.608C177.004 142.715 177.142 142.857 177.242 143.034C177.343 143.212 177.393 143.414 177.393 143.64C177.393 143.866 177.338 144.069 177.228 144.25C177.121 144.43 176.975 144.574 176.787 144.681C176.603 144.784 176.392 144.835 176.153 144.835ZM179.442 144.835C179.154 144.835 178.903 144.758 178.686 144.603C178.473 144.445 178.307 144.227 178.188 143.949C178.068 143.669 178.008 143.343 178.008 142.971C178.008 142.6 178.068 142.276 178.188 141.998C178.307 141.717 178.473 141.5 178.686 141.345C178.899 141.19 179.149 141.112 179.437 141.112C179.724 141.112 179.974 141.19 180.187 141.345C180.4 141.5 180.566 141.717 180.686 141.998C180.808 142.276 180.87 142.6 180.87 142.971C180.87 143.343 180.81 143.669 180.691 143.949C180.571 144.23 180.403 144.448 180.187 144.603C179.974 144.758 179.726 144.835 179.442 144.835ZM179.442 144.395C179.635 144.395 179.803 144.337 179.945 144.221C180.087 144.101 180.197 143.935 180.274 143.722C180.355 143.509 180.395 143.259 180.395 142.971C180.395 142.684 180.355 142.434 180.274 142.221C180.197 142.008 180.085 141.843 179.94 141.727C179.798 141.611 179.63 141.553 179.437 141.553C179.243 141.553 179.075 141.611 178.933 141.727C178.791 141.843 178.68 142.008 178.599 142.221C178.522 142.434 178.483 142.684 178.483 142.971C178.483 143.255 178.522 143.504 178.599 143.717C178.68 143.93 178.791 144.096 178.933 144.216C179.078 144.335 179.248 144.395 179.442 144.395ZM181.88 144.777L184.824 141.17H185.361L182.417 144.777H181.88ZM182.422 143C182.245 143 182.085 142.959 181.943 142.875C181.801 142.787 181.686 142.673 181.599 142.531C181.515 142.389 181.473 142.231 181.473 142.056C181.473 141.882 181.515 141.724 181.599 141.582C181.686 141.437 181.801 141.322 181.943 141.238C182.085 141.154 182.245 141.112 182.422 141.112C182.596 141.112 182.755 141.154 182.897 141.238C183.039 141.322 183.152 141.437 183.236 141.582C183.319 141.724 183.361 141.882 183.361 142.056C183.361 142.231 183.319 142.389 183.236 142.531C183.152 142.673 183.039 142.787 182.897 142.875C182.755 142.959 182.596 143 182.422 143ZM182.417 142.603C182.527 142.603 182.621 142.578 182.698 142.526C182.776 142.474 182.837 142.407 182.882 142.323C182.927 142.239 182.95 142.15 182.95 142.056C182.95 141.96 182.927 141.871 182.882 141.79C182.837 141.706 182.776 141.638 182.698 141.587C182.621 141.532 182.527 141.504 182.417 141.504C182.314 141.504 182.222 141.532 182.141 141.587C182.061 141.638 181.998 141.706 181.953 141.79C181.907 141.874 181.885 141.963 181.885 142.056C181.885 142.147 181.907 142.236 181.953 142.323C181.998 142.407 182.061 142.474 182.141 142.526C182.222 142.578 182.314 142.603 182.417 142.603ZM184.79 144.835C184.612 144.835 184.452 144.793 184.31 144.71C184.168 144.622 184.054 144.508 183.967 144.366C183.883 144.224 183.841 144.066 183.841 143.891C183.841 143.717 183.883 143.559 183.967 143.417C184.054 143.272 184.168 143.157 184.31 143.073C184.452 142.989 184.612 142.947 184.79 142.947C184.964 142.947 185.122 142.989 185.264 143.073C185.406 143.157 185.519 143.272 185.603 143.417C185.687 143.559 185.729 143.717 185.729 143.891C185.729 144.066 185.687 144.224 185.603 144.366C185.519 144.508 185.406 144.622 185.264 144.71C185.122 144.793 184.964 144.835 184.79 144.835ZM184.79 144.438C184.896 144.438 184.988 144.413 185.066 144.361C185.146 144.309 185.208 144.242 185.25 144.158C185.295 144.074 185.317 143.985 185.317 143.891C185.317 143.795 185.295 143.706 185.25 143.625C185.208 143.541 185.146 143.473 185.066 143.422C184.988 143.367 184.896 143.339 184.79 143.339C184.686 143.339 184.593 143.367 184.509 143.422C184.428 143.473 184.365 143.541 184.32 143.625C184.275 143.709 184.252 143.798 184.252 143.891C184.252 143.982 184.275 144.07 184.32 144.158C184.365 144.242 184.428 144.309 184.509 144.361C184.593 144.413 184.686 144.438 184.79 144.438Z" fill="white"/>
<path d="M190.571 142.282L189.588 141.305L188.605 142.282" stroke="white" stroke-width="0.290493" stroke-miterlimit="10" stroke-linecap="round" stroke-linejoin="round"/>
<path d="M189.588 144.04V141.333" stroke="white" stroke-width="0.290493" stroke-miterlimit="10" stroke-linecap="round" stroke-linejoin="round"/>
<circle opacity="0.3" cx="200.26" cy="149.917" r="3.87325" fill="#3E68FF"/>
<circle opacity="0.6" cx="200.259" cy="149.917" r="0.968311" fill="#3E68FF"/>
<g filter="url(#filter2_d_561_7100)">
<path d="M199.906 155.863C199.77 155.688 199.601 155.335 199.305 154.894C199.136 154.652 198.72 154.192 198.594 153.955C198.503 153.811 198.477 153.635 198.521 153.471C198.597 153.158 198.894 152.951 199.213 152.987C199.461 153.036 199.688 153.158 199.867 153.335C199.992 153.453 200.107 153.581 200.211 153.718C200.288 153.815 200.308 153.853 200.395 153.965C200.482 154.076 200.54 154.187 200.496 154.023C200.463 153.781 200.405 153.374 200.322 153.011C200.259 152.735 200.245 152.691 200.187 152.483C200.129 152.275 200.095 152.101 200.032 151.864C199.974 151.63 199.929 151.394 199.896 151.157C199.835 150.852 199.88 150.537 200.022 150.261C200.191 150.102 200.439 150.06 200.651 150.154C200.865 150.312 201.024 150.532 201.107 150.784C201.233 151.094 201.318 151.42 201.358 151.752C201.436 152.236 201.586 152.943 201.591 153.088C201.591 152.909 201.557 152.532 201.591 152.362C201.624 152.186 201.747 152.039 201.915 151.975C202.059 151.931 202.212 151.921 202.36 151.946C202.511 151.977 202.644 152.064 202.733 152.188C202.845 152.47 202.908 152.77 202.917 153.074C202.93 152.808 202.976 152.545 203.053 152.29C203.134 152.176 203.252 152.093 203.387 152.057C203.547 152.028 203.711 152.028 203.871 152.057C204.002 152.101 204.117 152.184 204.2 152.294C204.303 152.551 204.365 152.822 204.384 153.098C204.384 153.166 204.418 152.909 204.525 152.74C204.58 152.576 204.719 152.453 204.889 152.419C205.059 152.385 205.234 152.444 205.349 152.574C205.463 152.704 205.5 152.885 205.445 153.05C205.445 153.364 205.445 153.35 205.445 153.563C205.445 153.776 205.445 153.965 205.445 154.144C205.427 154.427 205.388 154.709 205.328 154.986C205.244 155.232 205.127 155.465 204.98 155.679C204.745 155.94 204.55 156.236 204.404 156.555C204.367 156.714 204.351 156.876 204.355 157.039C204.355 157.19 204.374 157.339 204.413 157.485C204.215 157.506 204.016 157.506 203.818 157.485C203.629 157.456 203.397 157.078 203.334 156.962C203.303 156.899 203.239 156.86 203.169 156.86C203.099 156.86 203.036 156.899 203.004 156.962C202.898 157.146 202.661 157.48 202.496 157.499C202.172 157.538 201.504 157.499 200.976 157.499C200.976 157.499 201.063 157.015 200.864 156.841C200.666 156.666 200.463 156.463 200.313 156.327L199.906 155.863Z" fill="white"/>
<path fill-rule="evenodd" clip-rule="evenodd" d="M199.906 155.863C199.77 155.688 199.601 155.335 199.305 154.894C199.136 154.652 198.72 154.192 198.594 153.955C198.503 153.811 198.477 153.635 198.521 153.471C198.597 153.158 198.894 152.951 199.213 152.987C199.461 153.036 199.688 153.158 199.867 153.335C199.992 153.453 200.107 153.581 200.211 153.718C200.288 153.815 200.308 153.853 200.395 153.965C200.482 154.076 200.54 154.187 200.496 154.023C200.463 153.781 200.405 153.374 200.322 153.011C200.259 152.735 200.245 152.691 200.187 152.483C200.129 152.275 200.095 152.101 200.032 151.864C199.974 151.63 199.929 151.394 199.896 151.157C199.835 150.852 199.88 150.537 200.022 150.261C200.191 150.102 200.439 150.06 200.651 150.154C200.865 150.312 201.024 150.532 201.107 150.784C201.233 151.094 201.318 151.42 201.358 151.752C201.436 152.236 201.586 152.943 201.591 153.088C201.591 152.909 201.557 152.532 201.591 152.362C201.624 152.186 201.747 152.039 201.915 151.975C202.059 151.931 202.212 151.921 202.36 151.946C202.511 151.977 202.644 152.064 202.733 152.188C202.845 152.47 202.908 152.77 202.917 153.074C202.93 152.808 202.976 152.545 203.053 152.29C203.134 152.176 203.252 152.093 203.387 152.057C203.547 152.028 203.711 152.028 203.871 152.057C204.002 152.101 204.117 152.184 204.2 152.294C204.303 152.551 204.365 152.822 204.384 153.098C204.384 153.166 204.418 152.909 204.525 152.74C204.58 152.576 204.719 152.453 204.889 152.419C205.059 152.385 205.234 152.444 205.349 152.574C205.463 152.704 205.5 152.885 205.445 153.05C205.445 153.364 205.445 153.35 205.445 153.563C205.445 153.776 205.445 153.965 205.445 154.144C205.427 154.427 205.388 154.709 205.328 154.986C205.244 155.232 205.127 155.465 204.98 155.679C204.745 155.94 204.55 156.236 204.404 156.555C204.367 156.714 204.351 156.876 204.355 157.039C204.355 157.19 204.374 157.339 204.413 157.485C204.215 157.506 204.016 157.506 203.818 157.485C203.629 157.456 203.397 157.078 203.334 156.962C203.303 156.899 203.239 156.86 203.169 156.86C203.099 156.86 203.036 156.899 203.004 156.962C202.898 157.146 202.661 157.48 202.496 157.499C202.172 157.538 201.504 157.499 200.976 157.499C200.976 157.499 201.063 157.015 200.864 156.841C200.666 156.666 200.463 156.463 200.313 156.327L199.906 155.863Z" stroke="#212227" stroke-width="0.363117" stroke-linecap="round" stroke-linejoin="round"/>
<path d="M204.012 156.127V154.456C204.012 154.356 203.93 154.274 203.83 154.274C203.73 154.274 203.648 154.356 203.648 154.456V156.127C203.648 156.227 203.73 156.308 203.83 156.308C203.93 156.308 204.012 156.227 204.012 156.127Z" fill="#212227"/>
<path d="M203.054 156.126L203.045 154.454C203.044 154.354 202.962 154.274 202.862 154.274C202.762 154.275 202.681 154.356 202.682 154.456L202.691 156.128C202.692 156.228 202.774 156.308 202.874 156.308C202.974 156.307 203.055 156.226 203.054 156.126Z" fill="#212227"/>
<path d="M201.711 154.458L201.721 156.127C201.721 156.227 201.803 156.308 201.903 156.308C202.004 156.307 202.084 156.225 202.084 156.124L202.074 154.456C202.073 154.355 201.992 154.274 201.891 154.274C201.791 154.275 201.71 154.357 201.711 154.458Z" fill="#212227"/>
</g>
<path d="M128.309 213.78V213.32H128.508C128.679 213.32 128.815 213.27 128.915 213.17C129.015 213.067 129.065 212.928 129.065 212.754V210.173H129.544V212.744C129.544 212.954 129.5 213.136 129.413 213.291C129.329 213.446 129.21 213.567 129.055 213.654C128.9 213.738 128.718 213.78 128.508 213.78H128.309ZM131.048 213.838C130.877 213.838 130.726 213.808 130.593 213.746C130.464 213.682 130.363 213.595 130.288 213.485C130.214 213.372 130.177 213.243 130.177 213.098C130.177 212.959 130.206 212.835 130.264 212.725C130.325 212.612 130.419 212.517 130.545 212.439C130.674 212.362 130.835 212.307 131.029 212.275L131.997 212.115V212.492L131.131 212.638C130.963 212.667 130.84 212.72 130.763 212.797C130.689 212.875 130.651 212.97 130.651 213.083C130.651 213.19 130.693 213.278 130.777 213.349C130.864 213.42 130.973 213.456 131.102 213.456C131.266 213.456 131.408 213.422 131.528 213.354C131.65 213.283 131.746 213.188 131.813 213.069C131.884 212.949 131.92 212.817 131.92 212.672V212.008C131.92 211.866 131.867 211.752 131.76 211.665C131.657 211.574 131.52 211.529 131.349 211.529C131.2 211.529 131.068 211.568 130.952 211.645C130.839 211.719 130.755 211.819 130.7 211.945L130.308 211.742C130.356 211.623 130.434 211.516 130.54 211.422C130.647 211.326 130.771 211.25 130.913 211.195C131.055 211.14 131.203 211.113 131.358 211.113C131.558 211.113 131.734 211.151 131.886 211.229C132.038 211.303 132.156 211.408 132.239 211.543C132.327 211.676 132.37 211.831 132.37 212.008V213.78H131.93V213.286L132.012 213.315C131.957 213.419 131.883 213.509 131.789 213.587C131.696 213.664 131.586 213.725 131.46 213.771C131.334 213.816 131.197 213.838 131.048 213.838ZM133.068 213.78V211.171H133.509V211.679L133.436 211.635C133.501 211.471 133.604 211.343 133.746 211.253C133.891 211.159 134.061 211.113 134.255 211.113C134.442 211.113 134.608 211.155 134.753 211.238C134.902 211.322 135.018 211.439 135.102 211.587C135.189 211.736 135.233 211.903 135.233 212.091V213.78H134.777V212.236C134.777 212.091 134.752 211.968 134.7 211.868C134.648 211.768 134.574 211.69 134.477 211.635C134.384 211.577 134.276 211.548 134.153 211.548C134.03 211.548 133.92 211.577 133.824 211.635C133.73 211.69 133.656 211.769 133.601 211.873C133.546 211.973 133.519 212.094 133.519 212.236V213.78H133.068Z" fill="#9F9F9F"/>
<path d="M146.178 213.78V210.173H148.463V210.609H146.652V211.776H148.294V212.212H146.652V213.78H146.178ZM150.068 213.838C149.816 213.838 149.591 213.779 149.395 213.659C149.198 213.54 149.043 213.377 148.93 213.17C148.817 212.96 148.76 212.726 148.76 212.468C148.76 212.207 148.815 211.974 148.925 211.771C149.038 211.568 149.19 211.408 149.38 211.292C149.574 211.172 149.79 211.113 150.029 211.113C150.222 211.113 150.394 211.148 150.542 211.219C150.694 211.287 150.821 211.38 150.924 211.5C151.031 211.616 151.112 211.75 151.167 211.902C151.225 212.05 151.254 212.205 151.254 212.367C151.254 212.402 151.25 212.442 151.244 212.488C151.241 212.53 151.236 212.57 151.229 212.609H149.09V212.221H150.968L150.755 212.396C150.784 212.228 150.768 212.078 150.707 211.945C150.645 211.813 150.555 211.708 150.435 211.631C150.316 211.553 150.18 211.514 150.029 211.514C149.877 211.514 149.738 211.553 149.612 211.631C149.487 211.708 149.388 211.819 149.317 211.965C149.249 212.107 149.222 212.276 149.235 212.473C149.222 212.663 149.251 212.831 149.322 212.977C149.396 213.119 149.499 213.23 149.632 213.311C149.767 213.388 149.914 213.427 150.072 213.427C150.247 213.427 150.394 213.386 150.513 213.306C150.632 213.225 150.729 213.122 150.803 212.996L151.181 213.19C151.129 213.309 151.049 213.419 150.939 213.519C150.832 213.616 150.705 213.693 150.557 213.751C150.411 213.809 150.248 213.838 150.068 213.838ZM153.192 213.838C152.982 213.838 152.79 213.792 152.615 213.698C152.444 213.604 152.312 213.472 152.218 213.301L152.281 213.223V213.78H151.841V210.115H152.291V211.732L152.223 211.621C152.32 211.466 152.452 211.343 152.62 211.253C152.788 211.159 152.98 211.113 153.196 211.113C153.442 211.113 153.661 211.172 153.855 211.292C154.052 211.411 154.207 211.574 154.32 211.781C154.433 211.984 154.489 212.216 154.489 212.478C154.489 212.733 154.433 212.964 154.32 213.17C154.207 213.377 154.052 213.54 153.855 213.659C153.661 213.779 153.44 213.838 153.192 213.838ZM153.158 213.403C153.322 213.403 153.469 213.362 153.598 213.282C153.727 213.201 153.827 213.091 153.898 212.952C153.973 212.81 154.01 212.652 154.01 212.478C154.01 212.297 153.973 212.139 153.898 212.003C153.827 211.865 153.727 211.755 153.598 211.674C153.469 211.59 153.322 211.548 153.158 211.548C152.993 211.548 152.845 211.589 152.712 211.669C152.583 211.75 152.48 211.861 152.402 212.003C152.328 212.142 152.291 212.3 152.291 212.478C152.291 212.652 152.328 212.81 152.402 212.952C152.48 213.091 152.583 213.201 152.712 213.282C152.845 213.362 152.993 213.403 153.158 213.403Z" fill="#9F9F9F"/>
<path d="M165.769 213.78V210.173H166.205L167.556 212.095H167.333L168.674 210.173H169.11V213.78H168.631V210.774L168.8 210.827L167.459 212.715H167.42L166.094 210.827L166.244 210.774V213.78H165.769ZM170.623 213.838C170.452 213.838 170.3 213.808 170.168 213.746C170.039 213.682 169.937 213.595 169.863 213.485C169.789 213.372 169.751 213.243 169.751 213.098C169.751 212.959 169.781 212.835 169.839 212.725C169.9 212.612 169.994 212.517 170.119 212.439C170.249 212.362 170.41 212.307 170.604 212.275L171.572 212.115V212.492L170.705 212.638C170.537 212.667 170.415 212.72 170.337 212.797C170.263 212.875 170.226 212.97 170.226 213.083C170.226 213.19 170.268 213.278 170.352 213.349C170.439 213.42 170.547 213.456 170.676 213.456C170.841 213.456 170.983 213.422 171.102 213.354C171.225 213.283 171.32 213.188 171.388 213.069C171.459 212.949 171.494 212.817 171.494 212.672V212.008C171.494 211.866 171.441 211.752 171.335 211.665C171.231 211.574 171.094 211.529 170.923 211.529C170.775 211.529 170.642 211.568 170.526 211.645C170.413 211.719 170.329 211.819 170.274 211.945L169.882 211.742C169.931 211.623 170.008 211.516 170.115 211.422C170.221 211.326 170.345 211.25 170.487 211.195C170.629 211.14 170.778 211.113 170.933 211.113C171.133 211.113 171.309 211.151 171.461 211.229C171.612 211.303 171.73 211.408 171.814 211.543C171.901 211.676 171.945 211.831 171.945 212.008V213.78H171.504V213.286L171.586 213.315C171.532 213.419 171.457 213.509 171.364 213.587C171.27 213.664 171.16 213.725 171.034 213.771C170.909 213.816 170.771 213.838 170.623 213.838ZM172.643 213.78V211.171H173.083V211.65L173.035 211.582C173.096 211.434 173.19 211.324 173.316 211.253C173.442 211.179 173.595 211.142 173.776 211.142H173.936V211.568H173.708C173.524 211.568 173.376 211.626 173.263 211.742C173.15 211.855 173.093 212.016 173.093 212.226V213.78H172.643Z" fill="#9F9F9F"/>
<path d="M185.064 213.78L186.357 210.173H186.918L188.211 213.78H187.703L187.407 212.933H185.868L185.572 213.78H185.064ZM186.018 212.497H187.257L186.57 210.517H186.705L186.018 212.497ZM188.612 214.749V211.171H189.053V211.732L188.995 211.621C189.092 211.466 189.224 211.343 189.392 211.253C189.56 211.159 189.752 211.113 189.968 211.113C190.213 211.113 190.433 211.172 190.626 211.292C190.823 211.411 190.978 211.574 191.091 211.781C191.204 211.984 191.261 212.216 191.261 212.478C191.261 212.733 191.204 212.964 191.091 213.17C190.978 213.377 190.823 213.54 190.626 213.659C190.433 213.779 190.212 213.838 189.963 213.838C189.753 213.838 189.561 213.792 189.387 213.698C189.216 213.604 189.084 213.472 188.99 213.301L189.063 213.223V214.749H188.612ZM189.929 213.403C190.094 213.403 190.241 213.362 190.37 213.282C190.499 213.201 190.599 213.091 190.67 212.952C190.744 212.81 190.781 212.652 190.781 212.478C190.781 212.297 190.744 212.139 190.67 212.003C190.599 211.865 190.499 211.755 190.37 211.674C190.241 211.59 190.094 211.548 189.929 211.548C189.765 211.548 189.616 211.589 189.484 211.669C189.355 211.75 189.251 211.861 189.174 212.003C189.1 212.142 189.063 212.3 189.063 212.478C189.063 212.652 189.1 212.81 189.174 212.952C189.251 213.091 189.355 213.201 189.484 213.282C189.616 213.362 189.765 213.403 189.929 213.403ZM191.851 213.78V211.171H192.292V211.65L192.243 211.582C192.305 211.434 192.398 211.324 192.524 211.253C192.65 211.179 192.803 211.142 192.984 211.142H193.144V211.568H192.916C192.732 211.568 192.584 211.626 192.471 211.742C192.358 211.855 192.301 212.016 192.301 212.226V213.78H191.851Z" fill="#9F9F9F"/>
<path d="M204.129 213.78V210.173H204.565L205.916 212.095H205.693L207.034 210.173H207.47V213.78H206.991V210.774L207.16 210.827L205.819 212.715H205.78L204.454 210.827L204.604 210.774V213.78H204.129ZM208.983 213.838C208.812 213.838 208.66 213.808 208.528 213.746C208.399 213.682 208.297 213.595 208.223 213.485C208.148 213.372 208.111 213.243 208.111 213.098C208.111 212.959 208.14 212.835 208.198 212.725C208.26 212.612 208.353 212.517 208.479 212.439C208.608 212.362 208.77 212.307 208.963 212.275L209.932 212.115V212.492L209.065 212.638C208.897 212.667 208.775 212.72 208.697 212.797C208.623 212.875 208.586 212.97 208.586 213.083C208.586 213.19 208.628 213.278 208.712 213.349C208.799 213.42 208.907 213.456 209.036 213.456C209.201 213.456 209.343 213.422 209.462 213.354C209.585 213.283 209.68 213.188 209.748 213.069C209.819 212.949 209.854 212.817 209.854 212.672V212.008C209.854 211.866 209.801 211.752 209.695 211.665C209.591 211.574 209.454 211.529 209.283 211.529C209.135 211.529 209.002 211.568 208.886 211.645C208.773 211.719 208.689 211.819 208.634 211.945L208.242 211.742C208.29 211.623 208.368 211.516 208.474 211.422C208.581 211.326 208.705 211.25 208.847 211.195C208.989 211.14 209.138 211.113 209.293 211.113C209.493 211.113 209.669 211.151 209.82 211.229C209.972 211.303 210.09 211.408 210.174 211.543C210.261 211.676 210.305 211.831 210.305 212.008V213.78H209.864V213.286L209.946 213.315C209.891 213.419 209.817 213.509 209.724 213.587C209.63 213.664 209.52 213.725 209.394 213.771C209.268 213.816 209.131 213.838 208.983 213.838ZM211.143 214.845C211.085 214.845 211.027 214.841 210.969 214.831C210.911 214.821 210.856 214.805 210.804 214.782V214.381C210.84 214.387 210.883 214.394 210.935 214.4C210.99 214.41 211.043 214.415 211.095 214.415C211.246 214.415 211.361 214.381 211.438 214.313C211.519 214.248 211.595 214.135 211.666 213.974L211.831 213.582L211.821 213.974L210.707 211.171H211.196L212.063 213.398H211.918L212.78 211.171H213.278L212.102 214.09C212.047 214.229 211.976 214.355 211.889 214.468C211.805 214.584 211.701 214.676 211.579 214.744C211.456 214.812 211.311 214.845 211.143 214.845Z" fill="#9F9F9F"/>
<path d="M223.939 213.78V213.32H224.137C224.308 213.32 224.444 213.27 224.544 213.17C224.644 213.067 224.694 212.928 224.694 212.754V210.173H225.173V212.744C225.173 212.954 225.13 213.136 225.043 213.291C224.959 213.446 224.839 213.567 224.684 213.654C224.529 213.738 224.347 213.78 224.137 213.78H223.939ZM226.838 213.838C226.65 213.838 226.481 213.795 226.329 213.708C226.181 213.621 226.064 213.499 225.981 213.345C225.9 213.186 225.86 213.006 225.86 212.802V211.171H226.31V212.754C226.31 212.883 226.336 212.996 226.387 213.093C226.442 213.19 226.516 213.265 226.61 213.32C226.707 213.375 226.817 213.403 226.939 213.403C227.062 213.403 227.17 213.375 227.264 213.32C227.36 213.265 227.435 213.186 227.486 213.083C227.541 212.98 227.569 212.857 227.569 212.715V211.171H228.024V213.78H227.583V213.272L227.656 213.315C227.594 213.48 227.49 213.609 227.341 213.703C227.196 213.793 227.028 213.838 226.838 213.838ZM228.721 213.78V211.171H229.162V211.679L229.089 211.635C229.154 211.471 229.257 211.343 229.399 211.253C229.544 211.159 229.714 211.113 229.907 211.113C230.095 211.113 230.261 211.155 230.406 211.238C230.555 211.322 230.671 211.439 230.755 211.587C230.842 211.736 230.885 211.903 230.885 212.091V213.78H230.43V212.236C230.43 212.091 230.405 211.968 230.353 211.868C230.301 211.768 230.227 211.69 230.13 211.635C230.037 211.577 229.928 211.548 229.806 211.548C229.683 211.548 229.573 211.577 229.477 211.635C229.383 211.69 229.309 211.769 229.254 211.873C229.199 211.973 229.172 212.094 229.172 212.236V213.78H228.721ZM232.73 213.838C232.479 213.838 232.254 213.779 232.057 213.659C231.861 213.54 231.706 213.377 231.593 213.17C231.48 212.96 231.423 212.726 231.423 212.468C231.423 212.207 231.478 211.974 231.588 211.771C231.701 211.568 231.853 211.408 232.043 211.292C232.237 211.172 232.453 211.113 232.692 211.113C232.885 211.113 233.056 211.148 233.205 211.219C233.357 211.287 233.484 211.38 233.587 211.5C233.694 211.616 233.775 211.75 233.829 211.902C233.888 212.05 233.917 212.205 233.917 212.367C233.917 212.402 233.913 212.442 233.907 212.488C233.904 212.53 233.899 212.57 233.892 212.609H231.752V212.221H233.631L233.418 212.396C233.447 212.228 233.431 212.078 233.37 211.945C233.308 211.813 233.218 211.708 233.098 211.631C232.979 211.553 232.843 211.514 232.692 211.514C232.54 211.514 232.401 211.553 232.275 211.631C232.149 211.708 232.051 211.819 231.98 211.965C231.912 212.107 231.885 212.276 231.898 212.473C231.885 212.663 231.914 212.831 231.985 212.977C232.059 213.119 232.162 213.23 232.295 213.311C232.43 213.388 232.577 213.427 232.735 213.427C232.91 213.427 233.056 213.386 233.176 213.306C233.295 213.225 233.392 213.122 233.466 212.996L233.844 213.19C233.792 213.309 233.712 213.419 233.602 213.519C233.495 213.616 233.368 213.693 233.219 213.751C233.074 213.809 232.911 213.838 232.73 213.838Z" fill="#9F9F9F"/>
<path d="M117.596 203.165V199.97H116.914V199.558H118.076V203.165H117.596ZM120.341 203.223C120.053 203.223 119.802 203.146 119.585 202.991C119.372 202.833 119.206 202.615 119.087 202.337C118.967 202.056 118.907 201.73 118.907 201.359C118.907 200.988 118.967 200.664 119.087 200.386C119.206 200.105 119.372 199.887 119.585 199.732C119.798 199.577 120.048 199.5 120.336 199.5C120.623 199.5 120.873 199.577 121.086 199.732C121.299 199.887 121.465 200.105 121.585 200.386C121.708 200.664 121.769 200.988 121.769 201.359C121.769 201.73 121.709 202.056 121.59 202.337C121.47 202.618 121.302 202.836 121.086 202.991C120.873 203.146 120.625 203.223 120.341 203.223ZM120.341 202.783C120.534 202.783 120.702 202.724 120.844 202.608C120.986 202.489 121.096 202.323 121.173 202.11C121.254 201.897 121.294 201.646 121.294 201.359C121.294 201.072 121.254 200.822 121.173 200.609C121.096 200.396 120.984 200.231 120.839 200.115C120.697 199.999 120.529 199.941 120.336 199.941C120.142 199.941 119.974 199.999 119.832 200.115C119.69 200.231 119.579 200.396 119.498 200.609C119.421 200.822 119.382 201.072 119.382 201.359C119.382 201.643 119.421 201.892 119.498 202.105C119.579 202.318 119.69 202.484 119.832 202.603C119.977 202.723 120.147 202.783 120.341 202.783Z" fill="#9F9F9F"/>
<path d="M115.946 187.724V187.394L116.944 186.315C117.14 186.105 117.297 185.932 117.413 185.797C117.533 185.661 117.62 185.54 117.675 185.434C117.73 185.327 117.757 185.214 117.757 185.095C117.757 184.898 117.699 184.746 117.583 184.64C117.466 184.533 117.313 184.48 117.123 184.48C116.929 184.48 116.764 184.536 116.629 184.649C116.493 184.759 116.4 184.916 116.348 185.119L115.917 185.008C115.959 184.814 116.037 184.646 116.15 184.504C116.263 184.362 116.403 184.252 116.571 184.175C116.739 184.097 116.923 184.059 117.123 184.059C117.342 184.059 117.534 184.102 117.699 184.189C117.867 184.273 117.997 184.391 118.091 184.543C118.188 184.694 118.236 184.87 118.236 185.07C118.236 185.203 118.209 185.332 118.154 185.458C118.099 185.584 118.018 185.718 117.912 185.86C117.805 185.998 117.667 186.16 117.496 186.344L116.605 187.312H118.314V187.724H115.946ZM120.341 187.782C120.053 187.782 119.802 187.704 119.585 187.549C119.372 187.391 119.206 187.173 119.087 186.896C118.967 186.615 118.907 186.289 118.907 185.918C118.907 185.547 118.967 185.222 119.087 184.945C119.206 184.664 119.372 184.446 119.585 184.291C119.798 184.136 120.048 184.059 120.336 184.059C120.623 184.059 120.873 184.136 121.086 184.291C121.299 184.446 121.465 184.664 121.585 184.945C121.708 185.222 121.769 185.547 121.769 185.918C121.769 186.289 121.709 186.615 121.59 186.896C121.47 187.177 121.302 187.394 121.086 187.549C120.873 187.704 120.625 187.782 120.341 187.782ZM120.341 187.341C120.534 187.341 120.702 187.283 120.844 187.167C120.986 187.047 121.096 186.881 121.173 186.668C121.254 186.455 121.294 186.205 121.294 185.918C121.294 185.63 121.254 185.38 121.173 185.167C121.096 184.954 120.984 184.79 120.839 184.673C120.697 184.557 120.529 184.499 120.336 184.499C120.142 184.499 119.974 184.557 119.832 184.673C119.69 184.79 119.579 184.954 119.498 185.167C119.421 185.38 119.382 185.63 119.382 185.918C119.382 186.202 119.421 186.45 119.498 186.663C119.579 186.876 119.69 187.043 119.832 187.162C119.977 187.281 120.147 187.341 120.341 187.341Z" fill="#9F9F9F"/>
<path d="M117.051 172.34C116.861 172.34 116.683 172.306 116.519 172.239C116.354 172.171 116.212 172.076 116.093 171.953C115.973 171.827 115.885 171.679 115.827 171.508L116.228 171.343C116.296 171.524 116.403 171.664 116.548 171.764C116.693 171.864 116.861 171.914 117.051 171.914C117.2 171.914 117.332 171.885 117.448 171.827C117.565 171.769 117.655 171.685 117.72 171.575C117.787 171.466 117.821 171.333 117.821 171.178C117.821 171.02 117.787 170.888 117.72 170.781C117.655 170.672 117.565 170.588 117.448 170.53C117.332 170.471 117.198 170.442 117.047 170.442C116.998 170.442 116.945 170.446 116.887 170.452C116.832 170.459 116.785 170.468 116.746 170.481L116.645 170.263L117.608 169.087H116.011V168.675H118.146V169.072L117.226 170.205L117.197 170.079C117.413 170.086 117.603 170.136 117.768 170.229C117.933 170.323 118.062 170.451 118.155 170.612C118.249 170.77 118.296 170.956 118.296 171.169C118.296 171.388 118.242 171.587 118.136 171.764C118.029 171.942 117.883 172.082 117.695 172.185C117.508 172.289 117.294 172.34 117.051 172.34ZM120.341 172.34C120.053 172.34 119.802 172.263 119.585 172.108C119.372 171.95 119.206 171.732 119.087 171.454C118.967 171.174 118.907 170.848 118.907 170.476C118.907 170.105 118.967 169.781 119.087 169.503C119.206 169.222 119.372 169.004 119.585 168.85C119.798 168.695 120.048 168.617 120.336 168.617C120.623 168.617 120.873 168.695 121.086 168.85C121.299 169.004 121.465 169.222 121.585 169.503C121.708 169.781 121.769 170.105 121.769 170.476C121.769 170.848 121.709 171.174 121.59 171.454C121.47 171.735 121.302 171.953 121.086 172.108C120.873 172.263 120.625 172.34 120.341 172.34ZM120.341 171.9C120.534 171.9 120.702 171.842 120.844 171.725C120.986 171.606 121.096 171.44 121.173 171.227C121.254 171.014 121.294 170.764 121.294 170.476C121.294 170.189 121.254 169.939 121.173 169.726C121.096 169.513 120.984 169.348 120.839 169.232C120.697 169.116 120.529 169.058 120.336 169.058C120.142 169.058 119.974 169.116 119.832 169.232C119.69 169.348 119.579 169.513 119.498 169.726C119.421 169.939 119.382 170.189 119.382 170.476C119.382 170.76 119.421 171.009 119.498 171.222C119.579 171.435 119.69 171.601 119.832 171.721C119.977 171.84 120.147 171.9 120.341 171.9Z" fill="#9F9F9F"/>
<path d="M117.476 156.841V156.008H115.704V155.616L117.466 153.234H117.921V155.616H118.391V156.008H117.921V156.841H117.476ZM116.062 155.785L115.994 155.616H117.476V153.631L117.616 153.67L116.062 155.785ZM120.341 156.899C120.053 156.899 119.802 156.821 119.585 156.667C119.372 156.508 119.206 156.29 119.087 156.013C118.967 155.732 118.907 155.406 118.907 155.035C118.907 154.664 118.967 154.339 119.087 154.062C119.206 153.781 119.372 153.563 119.585 153.408C119.798 153.253 120.048 153.176 120.336 153.176C120.623 153.176 120.873 153.253 121.086 153.408C121.299 153.563 121.465 153.781 121.585 154.062C121.708 154.339 121.769 154.664 121.769 155.035C121.769 155.406 121.709 155.732 121.59 156.013C121.47 156.294 121.302 156.512 121.086 156.667C120.873 156.821 120.625 156.899 120.341 156.899ZM120.341 156.458C120.534 156.458 120.702 156.4 120.844 156.284C120.986 156.165 121.096 155.998 121.173 155.785C121.254 155.572 121.294 155.322 121.294 155.035C121.294 154.748 121.254 154.498 121.173 154.284C121.096 154.071 120.984 153.907 120.839 153.791C120.697 153.674 120.529 153.616 120.336 153.616C120.142 153.616 119.974 153.674 119.832 153.791C119.69 153.907 119.579 154.071 119.498 154.284C119.421 154.498 119.382 154.748 119.382 155.035C119.382 155.319 119.421 155.567 119.498 155.781C119.579 155.994 119.69 156.16 119.832 156.279C119.977 156.399 120.147 156.458 120.341 156.458Z" fill="#9F9F9F"/>
<path d="M117.052 141.458C116.865 141.458 116.689 141.425 116.524 141.361C116.36 141.293 116.216 141.198 116.094 141.075C115.974 140.949 115.887 140.802 115.832 140.634L116.219 140.47C116.287 140.647 116.397 140.786 116.549 140.886C116.704 140.983 116.871 141.031 117.052 141.031C117.201 141.031 117.331 140.999 117.444 140.935C117.56 140.867 117.651 140.775 117.715 140.659C117.78 140.539 117.812 140.407 117.812 140.262C117.812 140.11 117.778 139.976 117.711 139.86C117.646 139.744 117.557 139.653 117.444 139.589C117.331 139.521 117.202 139.487 117.057 139.487C116.909 139.487 116.773 139.521 116.65 139.589C116.528 139.656 116.439 139.742 116.384 139.845L116.002 139.763L116.277 137.792H118.146V138.204H116.457L116.641 138.02L116.428 139.55L116.263 139.453C116.369 139.318 116.494 139.221 116.636 139.163C116.781 139.101 116.938 139.071 117.105 139.071C117.341 139.071 117.548 139.124 117.725 139.23C117.903 139.337 118.041 139.479 118.141 139.656C118.242 139.834 118.292 140.036 118.292 140.262C118.292 140.488 118.237 140.691 118.127 140.872C118.02 141.052 117.874 141.196 117.686 141.303C117.502 141.406 117.291 141.458 117.052 141.458ZM120.341 141.458C120.053 141.458 119.802 141.38 119.585 141.225C119.372 141.067 119.206 140.849 119.087 140.572C118.967 140.291 118.907 139.965 118.907 139.594C118.907 139.222 118.967 138.898 119.087 138.62C119.206 138.34 119.372 138.122 119.585 137.967C119.798 137.812 120.048 137.734 120.336 137.734C120.623 137.734 120.873 137.812 121.086 137.967C121.299 138.122 121.465 138.34 121.585 138.62C121.708 138.898 121.769 139.222 121.769 139.594C121.769 139.965 121.709 140.291 121.59 140.572C121.47 140.852 121.302 141.07 121.086 141.225C120.873 141.38 120.625 141.458 120.341 141.458ZM120.341 141.017C120.534 141.017 120.702 140.959 120.844 140.843C120.986 140.723 121.096 140.557 121.173 140.344C121.254 140.131 121.294 139.881 121.294 139.594C121.294 139.306 121.254 139.056 121.173 138.843C121.096 138.63 120.984 138.465 120.839 138.349C120.697 138.233 120.529 138.175 120.336 138.175C120.142 138.175 119.974 138.233 119.832 138.349C119.69 138.465 119.579 138.63 119.498 138.843C119.421 139.056 119.382 139.306 119.382 139.594C119.382 139.878 119.421 140.126 119.498 140.339C119.579 140.552 119.69 140.718 119.832 140.838C119.977 140.957 120.147 141.017 120.341 141.017Z" fill="#9F9F9F"/>
<rect x="211.441" y="117.098" width="23.3106" height="9.65079" rx="4.8254" fill="#F3F3F3"/>
<path d="M221.804 124.086C221.617 124.086 221.441 124.054 221.276 123.989C221.112 123.921 220.968 123.826 220.846 123.703C220.726 123.578 220.639 123.431 220.584 123.263L220.971 123.098C221.039 123.276 221.149 123.415 221.301 123.515C221.456 123.611 221.623 123.66 221.804 123.66C221.953 123.66 222.083 123.628 222.196 123.563C222.313 123.495 222.403 123.403 222.467 123.287C222.532 123.168 222.564 123.035 222.564 122.89C222.564 122.738 222.53 122.604 222.463 122.488C222.398 122.372 222.309 122.282 222.196 122.217C222.083 122.149 221.954 122.115 221.809 122.115C221.661 122.115 221.525 122.149 221.402 122.217C221.28 122.285 221.191 122.37 221.136 122.474L220.754 122.391L221.03 120.421H222.898V120.832H221.209L221.393 120.648L221.18 122.178L221.015 122.082C221.122 121.946 221.246 121.849 221.388 121.791C221.533 121.73 221.69 121.699 221.857 121.699C222.093 121.699 222.3 121.752 222.477 121.859C222.655 121.965 222.793 122.107 222.894 122.285C222.994 122.462 223.044 122.664 223.044 122.89C223.044 123.116 222.989 123.319 222.879 123.5C222.772 123.681 222.626 123.824 222.438 123.931C222.254 124.034 222.043 124.086 221.804 124.086ZM225.093 124.086C224.805 124.086 224.554 124.008 224.337 123.854C224.124 123.695 223.958 123.478 223.839 123.2C223.719 122.919 223.66 122.593 223.66 122.222C223.66 121.851 223.719 121.526 223.839 121.249C223.958 120.968 224.124 120.75 224.337 120.595C224.55 120.44 224.801 120.363 225.088 120.363C225.375 120.363 225.625 120.44 225.838 120.595C226.051 120.75 226.217 120.968 226.337 121.249C226.46 121.526 226.521 121.851 226.521 122.222C226.521 122.593 226.461 122.919 226.342 123.2C226.222 123.481 226.054 123.699 225.838 123.854C225.625 124.008 225.377 124.086 225.093 124.086ZM225.093 123.645C225.286 123.645 225.454 123.587 225.596 123.471C225.738 123.352 225.848 123.185 225.925 122.972C226.006 122.759 226.046 122.509 226.046 122.222C226.046 121.935 226.006 121.685 225.925 121.471C225.848 121.258 225.737 121.094 225.591 120.978C225.449 120.861 225.281 120.803 225.088 120.803C224.894 120.803 224.726 120.861 224.584 120.978C224.442 121.094 224.331 121.258 224.25 121.471C224.173 121.685 224.134 121.935 224.134 122.222C224.134 122.506 224.173 122.755 224.25 122.968C224.331 123.181 224.442 123.347 224.584 123.466C224.73 123.586 224.899 123.645 225.093 123.645ZM227.531 124.028L230.475 120.421H231.012L228.068 124.028H227.531ZM228.073 122.251C227.896 122.251 227.736 122.209 227.594 122.125C227.452 122.038 227.337 121.923 227.25 121.781C227.166 121.639 227.124 121.481 227.124 121.307C227.124 121.133 227.166 120.974 227.25 120.832C227.337 120.687 227.452 120.573 227.594 120.489C227.736 120.405 227.896 120.363 228.073 120.363C228.248 120.363 228.406 120.405 228.548 120.489C228.69 120.573 228.803 120.687 228.887 120.832C228.971 120.974 229.013 121.133 229.013 121.307C229.013 121.481 228.971 121.639 228.887 121.781C228.803 121.923 228.69 122.038 228.548 122.125C228.406 122.209 228.248 122.251 228.073 122.251ZM228.068 121.854C228.178 121.854 228.272 121.828 228.349 121.777C228.427 121.725 228.488 121.657 228.533 121.573C228.578 121.489 228.601 121.4 228.601 121.307C228.601 121.21 228.578 121.121 228.533 121.041C228.488 120.957 228.427 120.889 228.349 120.837C228.272 120.782 228.178 120.755 228.068 120.755C227.965 120.755 227.873 120.782 227.792 120.837C227.712 120.889 227.649 120.957 227.604 121.041C227.558 121.125 227.536 121.213 227.536 121.307C227.536 121.397 227.558 121.486 227.604 121.573C227.649 121.657 227.712 121.725 227.792 121.777C227.873 121.828 227.965 121.854 228.068 121.854ZM230.441 124.086C230.263 124.086 230.103 124.044 229.961 123.96C229.819 123.873 229.705 123.758 229.618 123.616C229.534 123.474 229.492 123.316 229.492 123.142C229.492 122.968 229.534 122.809 229.618 122.667C229.705 122.522 229.819 122.408 229.961 122.324C230.103 122.24 230.263 122.198 230.441 122.198C230.615 122.198 230.773 122.24 230.915 122.324C231.057 122.408 231.17 122.522 231.254 122.667C231.338 122.809 231.38 122.968 231.38 123.142C231.38 123.316 231.338 123.474 231.254 123.616C231.17 123.758 231.057 123.873 230.915 123.96C230.773 124.044 230.615 124.086 230.441 124.086ZM230.441 123.689C230.547 123.689 230.639 123.663 230.717 123.611C230.797 123.56 230.859 123.492 230.901 123.408C230.946 123.324 230.968 123.235 230.968 123.142C230.968 123.045 230.946 122.956 230.901 122.876C230.859 122.792 230.797 122.724 230.717 122.672C230.639 122.617 230.547 122.59 230.441 122.59C230.337 122.59 230.244 122.617 230.16 122.672C230.079 122.724 230.016 122.792 229.971 122.876C229.926 122.959 229.903 123.048 229.903 123.142C229.903 123.232 229.926 123.321 229.971 123.408C230.016 123.492 230.079 123.56 230.16 123.611C230.244 123.663 230.337 123.689 230.441 123.689Z" fill="#5D74F1"/>
<path d="M217.881 122.38L217.629 120.432L215.654 120.513" stroke="#5D74F1" stroke-width="0.387324" stroke-miterlimit="10" stroke-linecap="round" stroke-linejoin="round"/>
<path d="M215.36 123.107L217.553 120.525" stroke="#5D74F1" stroke-width="0.387324" stroke-miterlimit="10" stroke-linecap="round" stroke-linejoin="round"/>
<path d="M118.057 126.031V119.834H116.14V118.817H121.078V119.834H119.19V126.031H118.057ZM123.672 126.147C123.169 126.147 122.707 126.028 122.288 125.789C121.875 125.55 121.545 125.224 121.3 124.811C121.055 124.398 120.932 123.93 120.932 123.407C120.932 122.878 121.055 122.41 121.3 122.003C121.545 121.59 121.875 121.267 122.288 121.035C122.701 120.796 123.162 120.676 123.672 120.676C124.189 120.676 124.65 120.796 125.057 121.035C125.47 121.267 125.796 121.59 126.035 122.003C126.28 122.41 126.403 122.878 126.403 123.407C126.403 123.936 126.28 124.408 126.035 124.821C125.79 125.234 125.46 125.56 125.047 125.799C124.634 126.031 124.176 126.147 123.672 126.147ZM123.672 125.131C123.982 125.131 124.257 125.056 124.495 124.908C124.734 124.76 124.921 124.556 125.057 124.298C125.199 124.033 125.27 123.736 125.27 123.407C125.27 123.078 125.199 122.784 125.057 122.526C124.921 122.268 124.734 122.064 124.495 121.916C124.257 121.767 123.982 121.693 123.672 121.693C123.369 121.693 123.095 121.767 122.849 121.916C122.61 122.064 122.42 122.268 122.278 122.526C122.142 122.784 122.075 123.078 122.075 123.407C122.075 123.736 122.142 124.033 122.278 124.298C122.42 124.556 122.61 124.76 122.849 124.908C123.095 125.056 123.369 125.131 123.672 125.131ZM129.643 126.089C129.094 126.089 128.668 125.934 128.364 125.625C128.061 125.315 127.909 124.879 127.909 124.317V121.78H126.989V120.793H127.135C127.38 120.793 127.57 120.722 127.706 120.58C127.841 120.438 127.909 120.244 127.909 119.999V119.592H129.003V120.793H130.194V121.78H129.003V124.269C129.003 124.45 129.032 124.605 129.091 124.734C129.149 124.856 129.242 124.953 129.371 125.024C129.5 125.089 129.668 125.121 129.875 125.121C129.927 125.121 129.985 125.118 130.049 125.111C130.114 125.105 130.175 125.098 130.233 125.092V126.031C130.143 126.044 130.043 126.057 129.933 126.07C129.823 126.083 129.726 126.089 129.643 126.089ZM132.822 126.147C132.467 126.147 132.154 126.086 131.883 125.963C131.618 125.834 131.412 125.66 131.263 125.441C131.115 125.215 131.041 124.95 131.041 124.647C131.041 124.363 131.102 124.108 131.225 123.882C131.354 123.656 131.551 123.465 131.815 123.31C132.08 123.155 132.412 123.046 132.813 122.981L134.633 122.681V123.543L133.026 123.824C132.735 123.875 132.522 123.969 132.387 124.104C132.251 124.233 132.183 124.401 132.183 124.608C132.183 124.808 132.258 124.973 132.406 125.102C132.561 125.224 132.758 125.286 132.997 125.286C133.294 125.286 133.552 125.221 133.771 125.092C133.997 124.963 134.172 124.792 134.294 124.579C134.417 124.359 134.478 124.117 134.478 123.853V122.507C134.478 122.248 134.381 122.039 134.188 121.877C134 121.709 133.749 121.625 133.432 121.625C133.142 121.625 132.887 121.703 132.667 121.858C132.454 122.006 132.296 122.2 132.193 122.439L131.283 121.984C131.38 121.725 131.538 121.5 131.757 121.306C131.977 121.106 132.232 120.951 132.522 120.841C132.819 120.731 133.132 120.676 133.461 120.676C133.875 120.676 134.239 120.754 134.556 120.909C134.878 121.064 135.127 121.28 135.301 121.558C135.482 121.829 135.572 122.145 135.572 122.507V126.031H134.527V125.082L134.749 125.111C134.627 125.324 134.468 125.508 134.275 125.663C134.088 125.818 133.871 125.938 133.626 126.022C133.387 126.105 133.119 126.147 132.822 126.147ZM136.852 126.031V118.701H137.946V126.031H136.852ZM143.552 126.147C143.1 126.147 142.68 126.064 142.293 125.896C141.906 125.721 141.576 125.486 141.305 125.189C141.034 124.892 140.834 124.55 140.705 124.162L141.673 123.756C141.847 124.201 142.102 124.543 142.438 124.782C142.774 125.021 143.161 125.14 143.6 125.14C143.858 125.14 144.084 125.102 144.278 125.024C144.472 124.94 144.62 124.824 144.723 124.676C144.833 124.527 144.888 124.356 144.888 124.162C144.888 123.898 144.814 123.688 144.665 123.533C144.517 123.378 144.297 123.255 144.007 123.165L142.651 122.739C142.109 122.571 141.696 122.316 141.412 121.974C141.128 121.625 140.986 121.219 140.986 120.754C140.986 120.347 141.086 119.992 141.286 119.689C141.486 119.379 141.76 119.137 142.109 118.963C142.464 118.788 142.867 118.701 143.319 118.701C143.752 118.701 144.146 118.779 144.501 118.934C144.856 119.082 145.159 119.289 145.411 119.553C145.669 119.818 145.856 120.125 145.972 120.473L145.024 120.89C144.882 120.509 144.659 120.215 144.355 120.008C144.058 119.802 143.713 119.698 143.319 119.698C143.08 119.698 142.871 119.74 142.69 119.824C142.509 119.902 142.367 120.018 142.264 120.173C142.167 120.321 142.119 120.496 142.119 120.696C142.119 120.928 142.193 121.135 142.341 121.316C142.49 121.496 142.716 121.632 143.019 121.722L144.278 122.119C144.852 122.294 145.285 122.545 145.575 122.875C145.866 123.197 146.011 123.601 146.011 124.085C146.011 124.485 145.905 124.84 145.692 125.15C145.485 125.46 145.198 125.705 144.83 125.886C144.462 126.06 144.036 126.147 143.552 126.147ZM148.661 126.147C148.306 126.147 147.993 126.086 147.722 125.963C147.457 125.834 147.251 125.66 147.102 125.441C146.954 125.215 146.88 124.95 146.88 124.647C146.88 124.363 146.941 124.108 147.064 123.882C147.193 123.656 147.39 123.465 147.654 123.31C147.919 123.155 148.252 123.046 148.652 122.981L150.472 122.681V123.543L148.865 123.824C148.574 123.875 148.361 123.969 148.226 124.104C148.09 124.233 148.022 124.401 148.022 124.608C148.022 124.808 148.097 124.973 148.245 125.102C148.4 125.224 148.597 125.286 148.836 125.286C149.133 125.286 149.391 125.221 149.61 125.092C149.836 124.963 150.011 124.792 150.133 124.579C150.256 124.359 150.317 124.117 150.317 123.853V122.507C150.317 122.248 150.22 122.039 150.027 121.877C149.84 121.709 149.588 121.625 149.271 121.625C148.981 121.625 148.726 121.703 148.507 121.858C148.293 122.006 148.135 122.2 148.032 122.439L147.122 121.984C147.219 121.725 147.377 121.5 147.596 121.306C147.816 121.106 148.071 120.951 148.361 120.841C148.658 120.731 148.971 120.676 149.301 120.676C149.714 120.676 150.078 120.754 150.395 120.909C150.717 121.064 150.966 121.28 151.14 121.558C151.321 121.829 151.411 122.145 151.411 122.507V126.031H150.366V125.082L150.588 125.111C150.466 125.324 150.308 125.508 150.114 125.663C149.927 125.818 149.71 125.938 149.465 126.022C149.226 126.105 148.958 126.147 148.661 126.147ZM152.691 126.031V118.701H153.785V126.031H152.691ZM156.633 126.147C156.278 126.147 155.965 126.086 155.694 125.963C155.429 125.834 155.222 125.66 155.074 125.441C154.926 125.215 154.851 124.95 154.851 124.647C154.851 124.363 154.913 124.108 155.035 123.882C155.164 123.656 155.361 123.465 155.626 123.31C155.891 123.155 156.223 123.046 156.623 122.981L158.444 122.681V123.543L156.836 123.824C156.546 123.875 156.333 123.969 156.197 124.104C156.062 124.233 155.994 124.401 155.994 124.608C155.994 124.808 156.068 124.973 156.217 125.102C156.372 125.224 156.568 125.286 156.807 125.286C157.104 125.286 157.362 125.221 157.582 125.092C157.808 124.963 157.982 124.792 158.105 124.579C158.227 124.359 158.289 124.117 158.289 123.853V122.507C158.289 122.248 158.192 122.039 157.998 121.877C157.811 121.709 157.559 121.625 157.243 121.625C156.953 121.625 156.698 121.703 156.478 121.858C156.265 122.006 156.107 122.2 156.004 122.439L155.093 121.984C155.19 121.725 155.348 121.5 155.568 121.306C155.787 121.106 156.042 120.951 156.333 120.841C156.63 120.731 156.943 120.676 157.272 120.676C157.685 120.676 158.05 120.754 158.366 120.909C158.689 121.064 158.938 121.28 159.112 121.558C159.293 121.829 159.383 122.145 159.383 122.507V126.031H158.337V125.082L158.56 125.111C158.437 125.324 158.279 125.508 158.085 125.663C157.898 125.818 157.682 125.938 157.437 126.022C157.198 126.105 156.93 126.147 156.633 126.147ZM160.662 126.031V120.793H161.708V121.848L161.611 121.693C161.728 121.351 161.915 121.106 162.173 120.957C162.431 120.802 162.741 120.725 163.103 120.725H163.422V121.722H162.967C162.605 121.722 162.312 121.835 162.086 122.061C161.866 122.281 161.757 122.597 161.757 123.01V126.031H160.662ZM164.635 128.162C164.506 128.162 164.377 128.149 164.248 128.123C164.125 128.103 164.012 128.071 163.909 128.026V127.087C163.987 127.106 164.08 127.122 164.19 127.135C164.3 127.154 164.406 127.164 164.51 127.164C164.813 127.164 165.036 127.096 165.178 126.961C165.326 126.832 165.458 126.632 165.575 126.36L165.923 125.566L165.904 126.486L163.638 120.793H164.81L166.485 125.16H166.088L167.753 120.793H168.935L166.62 126.603C166.498 126.912 166.343 127.184 166.156 127.416C165.975 127.655 165.759 127.839 165.507 127.968C165.262 128.097 164.971 128.162 164.635 128.162ZM171.483 126.031V118.817H174.107C174.591 118.817 175.017 118.908 175.385 119.088C175.759 119.263 176.05 119.521 176.256 119.863C176.463 120.199 176.566 120.602 176.566 121.073C176.566 121.538 176.46 121.939 176.247 122.274C176.04 122.61 175.753 122.868 175.385 123.049C175.017 123.23 174.591 123.32 174.107 123.32H172.625V126.031H171.483ZM172.625 122.303H174.136C174.394 122.303 174.62 122.252 174.814 122.148C175.007 122.045 175.159 121.903 175.269 121.722C175.379 121.535 175.433 121.316 175.433 121.064C175.433 120.812 175.379 120.596 175.269 120.415C175.159 120.228 175.007 120.086 174.814 119.989C174.62 119.886 174.394 119.834 174.136 119.834H172.625V122.303ZM178.864 126.147C178.509 126.147 178.196 126.086 177.925 125.963C177.66 125.834 177.454 125.66 177.305 125.441C177.157 125.215 177.083 124.95 177.083 124.647C177.083 124.363 177.144 124.108 177.267 123.882C177.396 123.656 177.593 123.465 177.857 123.31C178.122 123.155 178.455 123.046 178.855 122.981L180.675 122.681V123.543L179.068 123.824C178.777 123.875 178.564 123.969 178.429 124.104C178.293 124.233 178.225 124.401 178.225 124.608C178.225 124.808 178.3 124.973 178.448 125.102C178.603 125.224 178.8 125.286 179.039 125.286C179.336 125.286 179.594 125.221 179.813 125.092C180.039 124.963 180.214 124.792 180.336 124.579C180.459 124.359 180.52 124.117 180.52 123.853V122.507C180.52 122.248 180.423 122.039 180.23 121.877C180.043 121.709 179.791 121.625 179.474 121.625C179.184 121.625 178.929 121.703 178.709 121.858C178.496 122.006 178.338 122.2 178.235 122.439L177.325 121.984C177.422 121.725 177.58 121.5 177.799 121.306C178.019 121.106 178.274 120.951 178.564 120.841C178.861 120.731 179.174 120.676 179.504 120.676C179.917 120.676 180.281 120.754 180.598 120.909C180.92 121.064 181.169 121.28 181.343 121.558C181.524 121.829 181.614 122.145 181.614 122.507V126.031H180.569V125.082L180.791 125.111C180.669 125.324 180.511 125.508 180.317 125.663C180.13 125.818 179.913 125.938 179.668 126.022C179.429 126.105 179.161 126.147 178.864 126.147ZM182.894 126.031V120.793H183.988V126.031H182.894ZM182.894 120.076V118.817H183.988V120.076H182.894ZM187.688 126.147C187.185 126.147 186.733 126.028 186.332 125.789C185.939 125.544 185.626 125.215 185.393 124.801C185.167 124.388 185.054 123.924 185.054 123.407C185.054 122.891 185.17 122.426 185.403 122.013C185.635 121.6 185.948 121.274 186.342 121.035C186.736 120.796 187.181 120.676 187.678 120.676C188.098 120.676 188.469 120.76 188.792 120.928C189.115 121.096 189.37 121.328 189.557 121.625L189.392 121.877V118.701H190.477V126.031H189.441V124.966L189.567 125.169C189.386 125.486 189.128 125.728 188.792 125.896C188.456 126.064 188.088 126.147 187.688 126.147ZM187.795 125.131C188.098 125.131 188.369 125.056 188.608 124.908C188.853 124.76 189.044 124.556 189.179 124.298C189.321 124.033 189.392 123.736 189.392 123.407C189.392 123.078 189.321 122.784 189.179 122.526C189.044 122.268 188.853 122.064 188.608 121.916C188.369 121.767 188.098 121.693 187.795 121.693C187.491 121.693 187.217 121.767 186.972 121.916C186.726 122.064 186.536 122.268 186.4 122.526C186.265 122.784 186.197 123.078 186.197 123.407C186.197 123.736 186.265 124.033 186.4 124.298C186.536 124.556 186.723 124.76 186.962 124.908C187.207 125.056 187.485 125.131 187.795 125.131Z" fill="#212227"/>
<defs>
<filter id="filter0_f_561_7100" x="0.000907898" y="-6.86646e-05" width="352.951" height="328.774" filterUnits="userSpaceOnUse" color-interpolation-filters="sRGB">
<feFlood flood-opacity="0" result="BackgroundImageFix"/>
<feBlend mode="normal" in="SourceGraphic" in2="BackgroundImageFix" result="shape"/>
<feGaussianBlur stdDeviation="48.4156" result="effect1_foregroundBlur_561_7100"/>
</filter>
<filter id="filter1_d_561_7100" x="55.543" y="69.5425" width="241.867" height="217.689" filterUnits="userSpaceOnUse" color-interpolation-filters="sRGB">
<feFlood flood-opacity="0" result="BackgroundImageFix"/>
<feColorMatrix in="SourceAlpha" type="matrix" values="0 0 0 0 0 0 0 0 0 0 0 0 0 0 0 0 0 0 127 0" result="hardAlpha"/>
<feOffset dy="14"/>
<feGaussianBlur stdDeviation="21"/>
<feComposite in2="hardAlpha" operator="out"/>
<feColorMatrix type="matrix" values="0 0 0 0 0 0 0 0 0 0 0 0 0 0 0 0 0 0 0.06 0"/>
<feBlend mode="normal" in2="BackgroundImageFix" result="effect1_dropShadow_561_7100"/>
<feBlend mode="normal" in="SourceGraphic" in2="effect1_dropShadow_561_7100" result="shape"/>
</filter>
<filter id="filter2_d_561_7100" x="197.931" y="149.923" width="8.10863" height="8.64638" filterUnits="userSpaceOnUse" color-interpolation-filters="sRGB">
<feFlood flood-opacity="0" result="BackgroundImageFix"/>
<feColorMatrix in="SourceAlpha" type="matrix" values="0 0 0 0 0 0 0 0 0 0 0 0 0 0 0 0 0 0 127 0" result="hardAlpha"/>
<feOffset dy="0.484156"/>
<feGaussianBlur stdDeviation="0.193662"/>
<feColorMatrix type="matrix" values="0 0 0 0 0 0 0 0 0 0 0 0 0 0 0 0 0 0 0.5 0"/>
<feBlend mode="normal" in2="BackgroundImageFix" result="effect1_dropShadow_561_7100"/>
<feBlend mode="normal" in="SourceGraphic" in2="effect1_dropShadow_561_7100" result="shape"/>
</filter>
<linearGradient id="paint0_linear_561_7100" x1="180.847" y1="140.742" x2="180.847" y2="202.025" gradientUnits="userSpaceOnUse">
<stop stop-color="#5B72EC" stop-opacity="0.4"/>
<stop offset="0.9999" stop-color="#5B72EC" stop-opacity="0.02"/>
<stop offset="1" stop-color="#D9D9D9" stop-opacity="0"/>
</linearGradient>
</defs>
</svg>
