<svg width="121" height="130" viewBox="0 0 121 130" fill="none" xmlns="http://www.w3.org/2000/svg">
<path d="M113.696 49.5741C105.793 53.5232 103.549 49.1009 95.6055 53.0365C87.7019 56.9856 89.8913 61.4347 81.9742 65.4241C74.0706 69.3731 71.8275 64.9509 63.9238 68.9C56.0202 72.849 58.2096 77.2981 50.2926 81.2875C42.3755 85.2769 40.1458 80.8143 32.1884 84.7902C24.231 88.7662 26.4742 93.1885 18.5169 97.1644C10.5595 101.14 8.37004 96.6912 0.412663 100.667" stroke="white" stroke-width="0.823508" stroke-miterlimit="10" stroke-linecap="round"/>
<path d="M120.597 28.8925C112.693 32.8416 110.45 28.4193 102.506 32.3549C94.6023 36.304 96.7917 40.7531 88.8746 44.7425C80.971 48.6915 78.7279 44.2693 70.8242 48.2183C62.9206 52.1674 65.11 56.6165 57.1929 60.6059C49.2759 64.5953 47.0461 60.1327 39.0888 64.1086C31.1314 68.0846 33.3746 72.5068 25.4172 76.4828C17.4599 80.4587 15.2704 76.0096 7.31305 79.9855" stroke="white" stroke-width="0.823508" stroke-miterlimit="10" stroke-linecap="round"/>
</svg>
