<svg width="121" height="130" viewBox="0 0 121 130" fill="none" xmlns="http://www.w3.org/2000/svg">
<path d="M113.696 49.5746C105.793 53.5236 103.549 49.1013 95.6055 53.037C87.6616 56.9726 89.8913 61.4352 81.9743 65.4245C74.0707 69.3736 71.8275 64.9513 63.9238 68.9004C56.0202 72.8495 58.2097 77.2986 50.2926 81.288C42.3352 85.2639 40.1458 80.8148 32.1884 84.7907C24.231 88.7666 26.4742 93.1889 18.5168 97.1648C10.5594 101.141 8.37001 96.6916 0.412628 100.668" stroke="white" stroke-width="0.823508" stroke-miterlimit="10" stroke-linecap="round"/>
<path d="M120.597 28.8924C112.693 32.8415 110.45 28.4192 102.506 32.3548C94.6023 36.3039 96.7917 40.753 88.8747 44.7424C80.9576 48.7318 78.7278 44.2692 70.8242 48.2183C62.9206 52.1673 65.11 56.6165 57.193 60.6059C49.2356 64.5818 47.0462 60.1326 39.0888 64.1086C31.1314 68.0845 33.3746 72.5068 25.4172 76.4827C17.4598 80.4586 15.2704 76.0095 7.31302 79.9854" stroke="white" stroke-width="0.823508" stroke-miterlimit="10" stroke-linecap="round"/>
</svg>
