<svg width="112" height="321" viewBox="0 0 112 321" fill="none" xmlns="http://www.w3.org/2000/svg">
<path d="M73.6748 28.7985C73.083 30.4379 71.9937 33.1659 71.227 35.4639C70.42 37.8828 69.5994 40.342 68.7655 42.8416C67.232 47.8407 65.8194 52.8802 64.595 58.0272C62.0789 68.2541 60.1542 78.5887 58.8342 88.9906C56.2077 109.754 56.081 130.545 58.387 150.625C59.6475 160.678 61.5129 170.53 63.9428 180.167C66.5609 189.777 69.6225 199.132 73.41 208.191C80.9984 226.269 91.1272 243.045 103.098 258.329C116.156 275.052 113.206 299.202 96.5242 312.274C79.8016 325.333 55.6514 322.383 42.5792 305.701C41.5448 304.37 40.6043 303.025 39.7715 301.628L39.4894 301.13C26.3382 278.642 15.9292 254.381 9.24321 229.3C5.90022 216.76 3.6056 204.032 1.94263 191.291C0.508124 178.536 -0.120016 165.782 0.0178895 153.149C0.535619 127.828 4.14434 103.047 10.481 79.22C13.6427 67.3267 17.4896 55.6622 21.9682 44.2532C24.1873 38.5419 26.608 32.898 29.19 27.3078C30.481 24.5127 31.8123 21.731 33.2377 18.936C34.6899 16.0603 36.0077 13.5878 37.9574 10.1612C43.4166 0.513051 55.6476 -2.84348 65.2958 2.6157C74.0033 7.53704 77.6022 17.9672 74.2129 27.0515L73.5539 28.7581L73.6748 28.7985Z" fill="url(#paint0_linear_921_6365)"/>
<defs>
<linearGradient id="paint0_linear_921_6365" x1="142.724" y1="186.962" x2="-23.8987" y2="131.37" gradientUnits="userSpaceOnUse">
<stop stop-color="#1847D3"/>
<stop offset="1" stop-color="#0824A0"/>
</linearGradient>
</defs>
</svg>
