<svg width="658" height="309" viewBox="0 0 658 309" fill="none" xmlns="http://www.w3.org/2000/svg">
<path opacity="0.7" d="M634.491 299.394C628.168 272.687 615.703 248.143 599.783 226.434C583.607 204.818 563.964 186.078 542.532 170.28C499.574 138.699 449.06 119.022 399.241 113.243C349.287 107.329 300.58 115.809 258.777 136.092C237.794 146.206 218.344 158.982 200.505 174.043C182.787 189.413 166.655 206.88 151.772 225.57C122.437 262.333 68.8912 268.393 32.0747 239.084C-4.68801 209.749 -10.7479 156.203 18.5607 119.387C22.2579 114.751 26.3851 110.572 30.7809 106.932L31.9504 105.978C58.7821 83.9709 87.5081 63.9404 118.518 47.2704C149.716 30.8424 183.144 18.0705 217.511 10.0028C251.892 1.89486 287.24 -1.32084 321.806 0.489672C356.386 2.25987 390.158 9.00252 421.859 19.8034C485.315 41.5126 540.689 78.9843 583.132 126.613C604.293 150.474 622.335 176.969 635.592 205.72C648.607 234.525 656.769 265.653 657.46 296.887C657.606 303.298 652.524 308.591 646.113 308.738C640.563 308.857 635.833 305.039 634.571 299.824L634.477 299.434L634.491 299.394Z" fill="url(#paint0_linear_921_6367)"/>
<defs>
<linearGradient id="paint0_linear_921_6367" x1="734.105" y1="301.357" x2="35.2401" y2="68.1863" gradientUnits="userSpaceOnUse">
<stop stop-color="#1872D3"/>
<stop offset="1" stop-color="#1508A0"/>
</linearGradient>
</defs>
</svg>
