<svg width="631" height="588" viewBox="0 0 631 588" fill="none" xmlns="http://www.w3.org/2000/svg">
<path opacity="0.7" d="M18.5049 186.913C77.9333 48.2725 245.999 -10.8422 365.407 1.62259C591.496 25.2182 663.256 196.473 617.151 319.218C577.905 423.821 464.242 438.452 343.18 427.99C230.129 418.228 171.68 415.618 170.22 447.254C168.949 474.698 240.119 498.801 273.624 500.571C303.163 502.138 355.296 501.387 402.045 480.515C457.531 455.747 509.646 469.685 517.111 497.4C526.254 531.364 478.44 563.485 445.832 574.067C354.757 603.716 238.819 580.716 177.396 548.618C31.5428 472.402 -35.3153 312.236 18.4781 186.859L18.5049 186.913Z" fill="url(#paint0_linear_921_6371)"/>
<defs>
<linearGradient id="paint0_linear_921_6371" x1="596.975" y1="380.228" x2="17.6851" y2="186.953" gradientUnits="userSpaceOnUse">
<stop stop-color="#2DD7EA"/>
<stop offset="1" stop-color="#1550CE"/>
</linearGradient>
</defs>
</svg>
